<mxfile host="app.diagrams.net" modified="2023-11-21T05:44:33.128Z" agent="Mozilla/5.0 (Windows NT 10.0; Win64; x64) AppleWebKit/537.36 (KHTML, like Gecko) Chrome/119.0.0.0 Safari/537.36" etag="uGsinapXFBpMb_nMnxgR" version="22.1.3" type="github">
  <diagram name="Page-1" id="_UVkYGvqQul9QqYh3hI9">
    <mxGraphModel dx="1373" dy="656" grid="1" gridSize="5" guides="1" tooltips="1" connect="1" arrows="1" fold="1" page="0" pageScale="1" pageWidth="850" pageHeight="1100" math="0" shadow="0">
      <root>
        <mxCell id="0" />
        <mxCell id="1" parent="0" />
        <mxCell id="8ZXuf9sZHQJM3aCNRwfm-1" value="Conv" style="rounded=1;whiteSpace=wrap;html=1;" parent="1" vertex="1">
          <mxGeometry x="40" y="60" width="60" height="20" as="geometry" />
        </mxCell>
        <mxCell id="8ZXuf9sZHQJM3aCNRwfm-2" value="" style="endArrow=blockThin;html=1;rounded=0;exitX=0.5;exitY=1;exitDx=0;exitDy=0;endFill=1;entryX=0.5;entryY=0;entryDx=0;entryDy=0;jumpSize=4;" parent="1" source="8ZXuf9sZHQJM3aCNRwfm-1" target="8ZXuf9sZHQJM3aCNRwfm-3" edge="1">
          <mxGeometry width="50" height="50" relative="1" as="geometry">
            <mxPoint x="170" y="125" as="sourcePoint" />
            <mxPoint x="60" y="95" as="targetPoint" />
          </mxGeometry>
        </mxCell>
        <mxCell id="8ZXuf9sZHQJM3aCNRwfm-3" value="Conv" style="rounded=1;whiteSpace=wrap;html=1;" parent="1" vertex="1">
          <mxGeometry x="40" y="100" width="60" height="20" as="geometry" />
        </mxCell>
        <mxCell id="8ZXuf9sZHQJM3aCNRwfm-5" value="" style="endArrow=classicThin;html=1;rounded=0;exitX=0.5;exitY=1;exitDx=0;exitDy=0;endFill=1;entryX=0.5;entryY=0;entryDx=0;entryDy=0;" parent="1" source="8ZXuf9sZHQJM3aCNRwfm-3" target="8ZXuf9sZHQJM3aCNRwfm-6" edge="1">
          <mxGeometry width="50" height="50" relative="1" as="geometry">
            <mxPoint x="60" y="120" as="sourcePoint" />
            <mxPoint x="60" y="135" as="targetPoint" />
          </mxGeometry>
        </mxCell>
        <mxCell id="8ZXuf9sZHQJM3aCNRwfm-6" value="C2f" style="rounded=1;whiteSpace=wrap;html=1;" parent="1" vertex="1">
          <mxGeometry x="40" y="135" width="60" height="20" as="geometry" />
        </mxCell>
        <mxCell id="8ZXuf9sZHQJM3aCNRwfm-7" value="" style="endArrow=classicThin;html=1;rounded=0;exitX=0.5;exitY=1;exitDx=0;exitDy=0;endFill=1;entryX=0.5;entryY=0;entryDx=0;entryDy=0;" parent="1" edge="1">
          <mxGeometry width="50" height="50" relative="1" as="geometry">
            <mxPoint x="69.87" y="40" as="sourcePoint" />
            <mxPoint x="69.87" y="60" as="targetPoint" />
          </mxGeometry>
        </mxCell>
        <mxCell id="8ZXuf9sZHQJM3aCNRwfm-8" value="输入端（input）" style="text;html=1;align=center;verticalAlign=middle;resizable=0;points=[];autosize=1;strokeColor=none;fillColor=none;" parent="1" vertex="1">
          <mxGeometry x="51" y="17" width="104" height="26" as="geometry" />
        </mxCell>
        <mxCell id="8ZXuf9sZHQJM3aCNRwfm-11" value="" style="endArrow=classicThin;html=1;rounded=0;exitX=0.5;exitY=1;exitDx=0;exitDy=0;endFill=1;entryX=0.5;entryY=0;entryDx=0;entryDy=0;" parent="1" source="8ZXuf9sZHQJM3aCNRwfm-6" target="8ZXuf9sZHQJM3aCNRwfm-12" edge="1">
          <mxGeometry width="50" height="50" relative="1" as="geometry">
            <mxPoint x="60" y="160" as="sourcePoint" />
            <mxPoint x="60" y="175" as="targetPoint" />
          </mxGeometry>
        </mxCell>
        <mxCell id="8ZXuf9sZHQJM3aCNRwfm-12" value="Conv" style="rounded=1;whiteSpace=wrap;html=1;" parent="1" vertex="1">
          <mxGeometry x="40" y="170" width="60" height="20" as="geometry" />
        </mxCell>
        <mxCell id="8ZXuf9sZHQJM3aCNRwfm-18" value="" style="endArrow=classicThin;html=1;rounded=0;exitX=0.5;exitY=1;exitDx=0;exitDy=0;endFill=1;entryX=0.5;entryY=0;entryDx=0;entryDy=0;" parent="1" source="8ZXuf9sZHQJM3aCNRwfm-12" target="8ZXuf9sZHQJM3aCNRwfm-19" edge="1">
          <mxGeometry width="50" height="50" relative="1" as="geometry">
            <mxPoint x="60" y="200" as="sourcePoint" />
            <mxPoint x="60" y="215" as="targetPoint" />
          </mxGeometry>
        </mxCell>
        <mxCell id="8ZXuf9sZHQJM3aCNRwfm-19" value="C2f" style="rounded=1;whiteSpace=wrap;html=1;" parent="1" vertex="1">
          <mxGeometry x="40" y="205" width="60" height="20" as="geometry" />
        </mxCell>
        <mxCell id="8ZXuf9sZHQJM3aCNRwfm-31" value="" style="endArrow=classicThin;html=1;rounded=0;exitX=0.5;exitY=1;exitDx=0;exitDy=0;endFill=1;entryX=0.5;entryY=0;entryDx=0;entryDy=0;" parent="1" source="8ZXuf9sZHQJM3aCNRwfm-19" target="8ZXuf9sZHQJM3aCNRwfm-32" edge="1">
          <mxGeometry width="50" height="50" relative="1" as="geometry">
            <mxPoint x="60" y="240" as="sourcePoint" />
            <mxPoint x="60" y="255" as="targetPoint" />
          </mxGeometry>
        </mxCell>
        <mxCell id="8ZXuf9sZHQJM3aCNRwfm-32" value="Conv" style="rounded=1;whiteSpace=wrap;html=1;" parent="1" vertex="1">
          <mxGeometry x="40" y="255" width="60" height="20" as="geometry" />
        </mxCell>
        <mxCell id="8ZXuf9sZHQJM3aCNRwfm-33" value="" style="endArrow=classicThin;html=1;rounded=0;exitX=0.5;exitY=1;exitDx=0;exitDy=0;endFill=1;entryX=0.5;entryY=0;entryDx=0;entryDy=0;" parent="1" source="8ZXuf9sZHQJM3aCNRwfm-32" target="8ZXuf9sZHQJM3aCNRwfm-34" edge="1">
          <mxGeometry width="50" height="50" relative="1" as="geometry">
            <mxPoint x="60" y="280" as="sourcePoint" />
            <mxPoint x="60" y="295" as="targetPoint" />
          </mxGeometry>
        </mxCell>
        <mxCell id="8ZXuf9sZHQJM3aCNRwfm-34" value="C2f" style="rounded=1;whiteSpace=wrap;html=1;" parent="1" vertex="1">
          <mxGeometry x="40" y="310" width="60" height="20" as="geometry" />
        </mxCell>
        <mxCell id="8ZXuf9sZHQJM3aCNRwfm-43" value="" style="endArrow=classicThin;html=1;rounded=0;exitX=0.5;exitY=1;exitDx=0;exitDy=0;endFill=1;entryX=0.5;entryY=0;entryDx=0;entryDy=0;" parent="1" source="8ZXuf9sZHQJM3aCNRwfm-34" target="8ZXuf9sZHQJM3aCNRwfm-44" edge="1">
          <mxGeometry width="50" height="50" relative="1" as="geometry">
            <mxPoint x="60" y="320" as="sourcePoint" />
            <mxPoint x="60" y="335" as="targetPoint" />
          </mxGeometry>
        </mxCell>
        <mxCell id="8ZXuf9sZHQJM3aCNRwfm-44" value="Conv" style="rounded=1;whiteSpace=wrap;html=1;" parent="1" vertex="1">
          <mxGeometry x="40" y="345" width="60" height="20" as="geometry" />
        </mxCell>
        <mxCell id="8ZXuf9sZHQJM3aCNRwfm-45" value="" style="endArrow=classicThin;html=1;rounded=0;exitX=0.5;exitY=1;exitDx=0;exitDy=0;endFill=1;entryX=0.5;entryY=0;entryDx=0;entryDy=0;" parent="1" source="8ZXuf9sZHQJM3aCNRwfm-44" target="8ZXuf9sZHQJM3aCNRwfm-46" edge="1">
          <mxGeometry width="50" height="50" relative="1" as="geometry">
            <mxPoint x="60" y="360" as="sourcePoint" />
            <mxPoint x="60" y="375" as="targetPoint" />
          </mxGeometry>
        </mxCell>
        <mxCell id="8ZXuf9sZHQJM3aCNRwfm-46" value="C2f" style="rounded=1;whiteSpace=wrap;html=1;" parent="1" vertex="1">
          <mxGeometry x="40" y="380" width="60" height="20" as="geometry" />
        </mxCell>
        <mxCell id="8ZXuf9sZHQJM3aCNRwfm-47" value="" style="endArrow=classicThin;html=1;rounded=0;exitX=0.5;exitY=1;exitDx=0;exitDy=0;endFill=1;entryX=0.5;entryY=0;entryDx=0;entryDy=0;" parent="1" source="8ZXuf9sZHQJM3aCNRwfm-46" target="8ZXuf9sZHQJM3aCNRwfm-48" edge="1">
          <mxGeometry width="50" height="50" relative="1" as="geometry">
            <mxPoint x="60" y="400" as="sourcePoint" />
            <mxPoint x="60" y="415" as="targetPoint" />
          </mxGeometry>
        </mxCell>
        <mxCell id="8ZXuf9sZHQJM3aCNRwfm-48" value="SPPF" style="rounded=1;whiteSpace=wrap;html=1;" parent="1" vertex="1">
          <mxGeometry x="40" y="420" width="60" height="20" as="geometry" />
        </mxCell>
        <mxCell id="8ZXuf9sZHQJM3aCNRwfm-53" value="Concat" style="rounded=1;whiteSpace=wrap;html=1;" parent="1" vertex="1">
          <mxGeometry x="140" y="310" width="60" height="20" as="geometry" />
        </mxCell>
        <mxCell id="8ZXuf9sZHQJM3aCNRwfm-55" value="" style="endArrow=classicThin;html=1;rounded=0;endFill=1;exitX=0.5;exitY=0;exitDx=0;exitDy=0;entryX=0.499;entryY=1.069;entryDx=0;entryDy=0;entryPerimeter=0;" parent="1" source="8ZXuf9sZHQJM3aCNRwfm-52" target="8ZXuf9sZHQJM3aCNRwfm-53" edge="1">
          <mxGeometry width="50" height="50" relative="1" as="geometry">
            <mxPoint x="160" y="350" as="sourcePoint" />
            <mxPoint x="170" y="340" as="targetPoint" />
          </mxGeometry>
        </mxCell>
        <mxCell id="8ZXuf9sZHQJM3aCNRwfm-58" value="Concat" style="rounded=1;whiteSpace=wrap;html=1;" parent="1" vertex="1">
          <mxGeometry x="140" y="205" width="60" height="20" as="geometry" />
        </mxCell>
        <mxCell id="8ZXuf9sZHQJM3aCNRwfm-59" value="C2f" style="rounded=1;whiteSpace=wrap;html=1;" parent="1" vertex="1">
          <mxGeometry x="140" y="170" width="60" height="20" as="geometry" />
        </mxCell>
        <mxCell id="8ZXuf9sZHQJM3aCNRwfm-62" value="C2f" style="rounded=1;whiteSpace=wrap;html=1;" parent="1" vertex="1">
          <mxGeometry x="140" y="275" width="60" height="20" as="geometry" />
        </mxCell>
        <mxCell id="8ZXuf9sZHQJM3aCNRwfm-52" value="Upsample" style="rounded=1;whiteSpace=wrap;html=1;" parent="1" vertex="1">
          <mxGeometry x="140" y="365" width="60" height="20" as="geometry" />
        </mxCell>
        <mxCell id="8ZXuf9sZHQJM3aCNRwfm-68" value="" style="endArrow=classic;html=1;rounded=0;" parent="1" edge="1">
          <mxGeometry width="50" height="50" relative="1" as="geometry">
            <mxPoint x="200" y="179.91" as="sourcePoint" />
            <mxPoint x="380" y="179.91" as="targetPoint" />
          </mxGeometry>
        </mxCell>
        <mxCell id="8ZXuf9sZHQJM3aCNRwfm-70" value="" style="endArrow=classicThin;html=1;rounded=0;endFill=1;" parent="1" edge="1">
          <mxGeometry width="50" height="50" relative="1" as="geometry">
            <mxPoint x="260" y="180" as="sourcePoint" />
            <mxPoint x="260" y="220" as="targetPoint" />
          </mxGeometry>
        </mxCell>
        <mxCell id="8ZXuf9sZHQJM3aCNRwfm-71" value="Conv" style="rounded=1;whiteSpace=wrap;html=1;" parent="1" vertex="1">
          <mxGeometry x="230" y="220" width="60" height="20" as="geometry" />
        </mxCell>
        <mxCell id="8ZXuf9sZHQJM3aCNRwfm-73" value="Concat" style="rounded=1;whiteSpace=wrap;html=1;" parent="1" vertex="1">
          <mxGeometry x="230" y="275" width="60" height="20" as="geometry" />
        </mxCell>
        <mxCell id="8ZXuf9sZHQJM3aCNRwfm-74" value="C2f" style="rounded=1;whiteSpace=wrap;html=1;" parent="1" vertex="1">
          <mxGeometry x="230" y="320" width="60" height="20" as="geometry" />
        </mxCell>
        <mxCell id="8ZXuf9sZHQJM3aCNRwfm-75" value="Conv" style="rounded=1;whiteSpace=wrap;html=1;" parent="1" vertex="1">
          <mxGeometry x="230" y="370" width="60" height="20" as="geometry" />
        </mxCell>
        <mxCell id="8ZXuf9sZHQJM3aCNRwfm-76" value="Concat" style="rounded=1;whiteSpace=wrap;html=1;" parent="1" vertex="1">
          <mxGeometry x="230" y="420" width="60" height="20" as="geometry" />
        </mxCell>
        <mxCell id="8ZXuf9sZHQJM3aCNRwfm-77" value="C2f" style="rounded=1;whiteSpace=wrap;html=1;" parent="1" vertex="1">
          <mxGeometry x="230" y="460" width="60" height="20" as="geometry" />
        </mxCell>
        <mxCell id="8ZXuf9sZHQJM3aCNRwfm-78" value="" style="endArrow=classicThin;html=1;rounded=0;endFill=1;exitX=0.5;exitY=0;exitDx=0;exitDy=0;entryX=0.5;entryY=0;entryDx=0;entryDy=0;" parent="1" target="8ZXuf9sZHQJM3aCNRwfm-73" edge="1">
          <mxGeometry width="50" height="50" relative="1" as="geometry">
            <mxPoint x="259.78" y="240" as="sourcePoint" />
            <mxPoint x="260" y="255" as="targetPoint" />
          </mxGeometry>
        </mxCell>
        <mxCell id="8ZXuf9sZHQJM3aCNRwfm-80" value="" style="endArrow=classicThin;html=1;rounded=0;endFill=1;entryX=0.5;entryY=0;entryDx=0;entryDy=0;" parent="1" target="8ZXuf9sZHQJM3aCNRwfm-74" edge="1">
          <mxGeometry width="50" height="50" relative="1" as="geometry">
            <mxPoint x="260" y="295" as="sourcePoint" />
            <mxPoint x="259.82" y="310" as="targetPoint" />
          </mxGeometry>
        </mxCell>
        <mxCell id="8ZXuf9sZHQJM3aCNRwfm-81" value="" style="endArrow=classicThin;html=1;rounded=0;endFill=1;exitX=0.5;exitY=0;exitDx=0;exitDy=0;" parent="1" edge="1">
          <mxGeometry width="50" height="50" relative="1" as="geometry">
            <mxPoint x="259.87" y="340" as="sourcePoint" />
            <mxPoint x="259.87" y="370" as="targetPoint" />
          </mxGeometry>
        </mxCell>
        <mxCell id="8ZXuf9sZHQJM3aCNRwfm-82" value="" style="endArrow=classicThin;html=1;rounded=0;endFill=1;exitX=0.5;exitY=0;exitDx=0;exitDy=0;entryX=0.5;entryY=0;entryDx=0;entryDy=0;" parent="1" target="8ZXuf9sZHQJM3aCNRwfm-76" edge="1">
          <mxGeometry width="50" height="50" relative="1" as="geometry">
            <mxPoint x="259.87" y="390" as="sourcePoint" />
            <mxPoint x="260" y="415" as="targetPoint" />
          </mxGeometry>
        </mxCell>
        <mxCell id="8ZXuf9sZHQJM3aCNRwfm-83" value="" style="endArrow=classicThin;html=1;rounded=0;endFill=1;exitX=0.5;exitY=0;exitDx=0;exitDy=0;" parent="1" edge="1">
          <mxGeometry width="50" height="50" relative="1" as="geometry">
            <mxPoint x="259.87" y="440" as="sourcePoint" />
            <mxPoint x="259.96" y="460" as="targetPoint" />
          </mxGeometry>
        </mxCell>
        <mxCell id="8ZXuf9sZHQJM3aCNRwfm-85" value="" style="endArrow=classic;html=1;rounded=0;" parent="1" edge="1">
          <mxGeometry width="50" height="50" relative="1" as="geometry">
            <mxPoint x="290" y="329.78" as="sourcePoint" />
            <mxPoint x="380" y="330" as="targetPoint" />
          </mxGeometry>
        </mxCell>
        <mxCell id="8ZXuf9sZHQJM3aCNRwfm-86" value="" style="endArrow=classic;html=1;rounded=0;" parent="1" edge="1">
          <mxGeometry width="50" height="50" relative="1" as="geometry">
            <mxPoint x="290" y="469.7099999999999" as="sourcePoint" />
            <mxPoint x="380" y="469.92999999999995" as="targetPoint" />
          </mxGeometry>
        </mxCell>
        <mxCell id="8ZXuf9sZHQJM3aCNRwfm-87" value="" style="endArrow=classic;html=1;rounded=0;exitX=1;exitY=0.5;exitDx=0;exitDy=0;entryX=0;entryY=0.5;entryDx=0;entryDy=0;" parent="1" source="8ZXuf9sZHQJM3aCNRwfm-48" target="8ZXuf9sZHQJM3aCNRwfm-76" edge="1">
          <mxGeometry width="50" height="50" relative="1" as="geometry">
            <mxPoint x="150" y="460" as="sourcePoint" />
            <mxPoint x="200" y="410" as="targetPoint" />
          </mxGeometry>
        </mxCell>
        <mxCell id="8ZXuf9sZHQJM3aCNRwfm-88" value="" style="endArrow=classicThin;html=1;rounded=0;endFill=1;entryX=0.5;entryY=1;entryDx=0;entryDy=0;exitX=0.5;exitY=0;exitDx=0;exitDy=0;" parent="1" target="8ZXuf9sZHQJM3aCNRwfm-52" edge="1">
          <mxGeometry width="50" height="50" relative="1" as="geometry">
            <mxPoint x="169.87" y="430" as="sourcePoint" />
            <mxPoint x="169.87" y="390" as="targetPoint" />
          </mxGeometry>
        </mxCell>
        <mxCell id="8ZXuf9sZHQJM3aCNRwfm-89" value="" style="endArrow=classic;html=1;rounded=0;" parent="1" edge="1">
          <mxGeometry width="50" height="50" relative="1" as="geometry">
            <mxPoint x="100" y="319.68999999999994" as="sourcePoint" />
            <mxPoint x="140" y="319.88" as="targetPoint" />
          </mxGeometry>
        </mxCell>
        <mxCell id="8ZXuf9sZHQJM3aCNRwfm-92" value="Upsample" style="rounded=1;whiteSpace=wrap;html=1;" parent="1" vertex="1">
          <mxGeometry x="140" y="240" width="60" height="20" as="geometry" />
        </mxCell>
        <mxCell id="8ZXuf9sZHQJM3aCNRwfm-96" value="" style="endArrow=classicThin;html=1;rounded=0;endFill=1;entryX=0.5;entryY=1;entryDx=0;entryDy=0;" parent="1" target="8ZXuf9sZHQJM3aCNRwfm-62" edge="1">
          <mxGeometry width="50" height="50" relative="1" as="geometry">
            <mxPoint x="169.91" y="310" as="sourcePoint" />
            <mxPoint x="169.91" y="291" as="targetPoint" />
          </mxGeometry>
        </mxCell>
        <mxCell id="8ZXuf9sZHQJM3aCNRwfm-97" value="" style="endArrow=classicThin;html=1;rounded=0;endFill=1;entryX=0.499;entryY=1.069;entryDx=0;entryDy=0;entryPerimeter=0;" parent="1" edge="1">
          <mxGeometry width="50" height="50" relative="1" as="geometry">
            <mxPoint x="169.91" y="274" as="sourcePoint" />
            <mxPoint x="169.91" y="260" as="targetPoint" />
          </mxGeometry>
        </mxCell>
        <mxCell id="8ZXuf9sZHQJM3aCNRwfm-98" value="" style="endArrow=classicThin;html=1;rounded=0;endFill=1;exitX=0.5;exitY=0;exitDx=0;exitDy=0;entryX=0.497;entryY=1.046;entryDx=0;entryDy=0;entryPerimeter=0;" parent="1" target="8ZXuf9sZHQJM3aCNRwfm-58" edge="1">
          <mxGeometry width="50" height="50" relative="1" as="geometry">
            <mxPoint x="169.91" y="240" as="sourcePoint" />
            <mxPoint x="169.91" y="228" as="targetPoint" />
          </mxGeometry>
        </mxCell>
        <mxCell id="8ZXuf9sZHQJM3aCNRwfm-99" value="" style="endArrow=classic;html=1;rounded=0;entryX=0;entryY=0.5;entryDx=0;entryDy=0;exitX=1;exitY=0.5;exitDx=0;exitDy=0;" parent="1" source="8ZXuf9sZHQJM3aCNRwfm-19" target="8ZXuf9sZHQJM3aCNRwfm-58" edge="1">
          <mxGeometry width="50" height="50" relative="1" as="geometry">
            <mxPoint x="100" y="219.68999999999994" as="sourcePoint" />
            <mxPoint x="140" y="219.88" as="targetPoint" />
          </mxGeometry>
        </mxCell>
        <mxCell id="8ZXuf9sZHQJM3aCNRwfm-100" value="" style="endArrow=classicThin;html=1;rounded=0;endFill=1;exitX=0.5;exitY=0;exitDx=0;exitDy=0;entryX=0.497;entryY=1.046;entryDx=0;entryDy=0;entryPerimeter=0;" parent="1" edge="1">
          <mxGeometry width="50" height="50" relative="1" as="geometry">
            <mxPoint x="169.91" y="205" as="sourcePoint" />
            <mxPoint x="170" y="191" as="targetPoint" />
          </mxGeometry>
        </mxCell>
        <mxCell id="8ZXuf9sZHQJM3aCNRwfm-101" value="" style="endArrow=classic;html=1;rounded=0;entryX=0;entryY=0.5;entryDx=0;entryDy=0;" parent="1" target="8ZXuf9sZHQJM3aCNRwfm-73" edge="1">
          <mxGeometry width="50" height="50" relative="1" as="geometry">
            <mxPoint x="200" y="284.85" as="sourcePoint" />
            <mxPoint x="275" y="284.85" as="targetPoint" />
          </mxGeometry>
        </mxCell>
        <mxCell id="Rub5kGw6FLc-8tNoT00z-1" value="NSC-MFFM" style="rounded=1;whiteSpace=wrap;html=1;" parent="1" vertex="1">
          <mxGeometry x="17" y="714" width="80" height="20" as="geometry" />
        </mxCell>
        <mxCell id="Rub5kGw6FLc-8tNoT00z-2" value="" style="endArrow=blockThin;html=1;rounded=0;exitX=0.5;exitY=1;exitDx=0;exitDy=0;endFill=1;entryX=0.5;entryY=0;entryDx=0;entryDy=0;jumpSize=4;" parent="1" source="Rub5kGw6FLc-8tNoT00z-1" target="Rub5kGw6FLc-8tNoT00z-3" edge="1">
          <mxGeometry width="50" height="50" relative="1" as="geometry">
            <mxPoint x="152" y="793" as="sourcePoint" />
            <mxPoint x="42" y="763" as="targetPoint" />
          </mxGeometry>
        </mxCell>
        <mxCell id="Rub5kGw6FLc-8tNoT00z-3" value="NSC-MFFM" style="rounded=1;whiteSpace=wrap;html=1;" parent="1" vertex="1">
          <mxGeometry x="17" y="746" width="80" height="20" as="geometry" />
        </mxCell>
        <mxCell id="Rub5kGw6FLc-8tNoT00z-4" value="" style="endArrow=classicThin;html=1;rounded=0;exitX=0.5;exitY=1;exitDx=0;exitDy=0;endFill=1;entryX=0.5;entryY=0;entryDx=0;entryDy=0;" parent="1" source="Rub5kGw6FLc-8tNoT00z-3" target="Rub5kGw6FLc-8tNoT00z-5" edge="1">
          <mxGeometry width="50" height="50" relative="1" as="geometry">
            <mxPoint x="42" y="788" as="sourcePoint" />
            <mxPoint x="42" y="803" as="targetPoint" />
          </mxGeometry>
        </mxCell>
        <mxCell id="Rub5kGw6FLc-8tNoT00z-5" value="Ghost-C2f" style="rounded=1;whiteSpace=wrap;html=1;" parent="1" vertex="1">
          <mxGeometry x="17" y="778" width="80" height="20" as="geometry" />
        </mxCell>
        <mxCell id="Rub5kGw6FLc-8tNoT00z-6" value="" style="endArrow=classicThin;html=1;rounded=0;endFill=1;entryX=0.5;entryY=0;entryDx=0;entryDy=0;" parent="1" edge="1">
          <mxGeometry width="50" height="50" relative="1" as="geometry">
            <mxPoint x="57" y="665" as="sourcePoint" />
            <mxPoint x="57.000000000000014" y="714" as="targetPoint" />
          </mxGeometry>
        </mxCell>
        <mxCell id="Rub5kGw6FLc-8tNoT00z-7" value="输入端（input）" style="text;html=1;align=center;verticalAlign=middle;resizable=0;points=[];autosize=1;strokeColor=none;fillColor=none;" parent="1" vertex="1">
          <mxGeometry x="13" y="614" width="104" height="26" as="geometry" />
        </mxCell>
        <mxCell id="Rub5kGw6FLc-8tNoT00z-8" value="" style="endArrow=classicThin;html=1;rounded=0;exitX=0.5;exitY=1;exitDx=0;exitDy=0;endFill=1;entryX=0.5;entryY=0;entryDx=0;entryDy=0;" parent="1" source="Rub5kGw6FLc-8tNoT00z-5" target="Rub5kGw6FLc-8tNoT00z-9" edge="1">
          <mxGeometry width="50" height="50" relative="1" as="geometry">
            <mxPoint x="42" y="828" as="sourcePoint" />
            <mxPoint x="42" y="843" as="targetPoint" />
          </mxGeometry>
        </mxCell>
        <mxCell id="Rub5kGw6FLc-8tNoT00z-9" value="NSC-MFFM" style="rounded=1;whiteSpace=wrap;html=1;" parent="1" vertex="1">
          <mxGeometry x="17" y="823" width="80" height="20" as="geometry" />
        </mxCell>
        <mxCell id="Rub5kGw6FLc-8tNoT00z-10" value="" style="endArrow=classicThin;html=1;rounded=0;exitX=0.5;exitY=1;exitDx=0;exitDy=0;endFill=1;entryX=0.5;entryY=0;entryDx=0;entryDy=0;" parent="1" source="Rub5kGw6FLc-8tNoT00z-9" target="Rub5kGw6FLc-8tNoT00z-11" edge="1">
          <mxGeometry width="50" height="50" relative="1" as="geometry">
            <mxPoint x="42" y="868" as="sourcePoint" />
            <mxPoint x="42" y="883" as="targetPoint" />
          </mxGeometry>
        </mxCell>
        <mxCell id="Rub5kGw6FLc-8tNoT00z-11" value="Ghost-C2f" style="rounded=1;whiteSpace=wrap;html=1;" parent="1" vertex="1">
          <mxGeometry x="17" y="873" width="80" height="20" as="geometry" />
        </mxCell>
        <mxCell id="Rub5kGw6FLc-8tNoT00z-12" value="" style="endArrow=classicThin;html=1;rounded=0;exitX=0.5;exitY=1;exitDx=0;exitDy=0;endFill=1;entryX=0.5;entryY=0;entryDx=0;entryDy=0;" parent="1" source="Rub5kGw6FLc-8tNoT00z-11" target="Rub5kGw6FLc-8tNoT00z-13" edge="1">
          <mxGeometry width="50" height="50" relative="1" as="geometry">
            <mxPoint x="42" y="908" as="sourcePoint" />
            <mxPoint x="42" y="923" as="targetPoint" />
          </mxGeometry>
        </mxCell>
        <mxCell id="Rub5kGw6FLc-8tNoT00z-13" value="NSC-MFFM" style="rounded=1;whiteSpace=wrap;html=1;" parent="1" vertex="1">
          <mxGeometry x="17" y="923" width="80" height="20" as="geometry" />
        </mxCell>
        <mxCell id="Rub5kGw6FLc-8tNoT00z-14" value="" style="endArrow=classicThin;html=1;rounded=0;exitX=0.5;exitY=1;exitDx=0;exitDy=0;endFill=1;entryX=0.5;entryY=0;entryDx=0;entryDy=0;" parent="1" source="Rub5kGw6FLc-8tNoT00z-13" target="Rub5kGw6FLc-8tNoT00z-15" edge="1">
          <mxGeometry width="50" height="50" relative="1" as="geometry">
            <mxPoint x="42" y="948" as="sourcePoint" />
            <mxPoint x="42" y="963" as="targetPoint" />
          </mxGeometry>
        </mxCell>
        <mxCell id="Rub5kGw6FLc-8tNoT00z-15" value="Ghost-C2f" style="rounded=1;whiteSpace=wrap;html=1;" parent="1" vertex="1">
          <mxGeometry x="17" y="978" width="80" height="20" as="geometry" />
        </mxCell>
        <mxCell id="Rub5kGw6FLc-8tNoT00z-16" value="" style="endArrow=classicThin;html=1;rounded=0;exitX=0.5;exitY=1;exitDx=0;exitDy=0;endFill=1;entryX=0.5;entryY=0;entryDx=0;entryDy=0;" parent="1" source="Rub5kGw6FLc-8tNoT00z-15" target="Rub5kGw6FLc-8tNoT00z-17" edge="1">
          <mxGeometry width="50" height="50" relative="1" as="geometry">
            <mxPoint x="42" y="988" as="sourcePoint" />
            <mxPoint x="42" y="1003" as="targetPoint" />
          </mxGeometry>
        </mxCell>
        <mxCell id="Rub5kGw6FLc-8tNoT00z-17" value="NSC-MFFM" style="rounded=1;whiteSpace=wrap;html=1;" parent="1" vertex="1">
          <mxGeometry x="17" y="1013" width="80" height="20" as="geometry" />
        </mxCell>
        <mxCell id="Rub5kGw6FLc-8tNoT00z-18" value="" style="endArrow=classicThin;html=1;rounded=0;exitX=0.5;exitY=1;exitDx=0;exitDy=0;endFill=1;entryX=0.5;entryY=0;entryDx=0;entryDy=0;" parent="1" source="Rub5kGw6FLc-8tNoT00z-17" target="Rub5kGw6FLc-8tNoT00z-19" edge="1">
          <mxGeometry width="50" height="50" relative="1" as="geometry">
            <mxPoint x="42" y="1028" as="sourcePoint" />
            <mxPoint x="42" y="1043" as="targetPoint" />
          </mxGeometry>
        </mxCell>
        <mxCell id="Rub5kGw6FLc-8tNoT00z-19" value="Ghost-C2f" style="rounded=1;whiteSpace=wrap;html=1;" parent="1" vertex="1">
          <mxGeometry x="17" y="1048" width="80" height="20" as="geometry" />
        </mxCell>
        <mxCell id="Rub5kGw6FLc-8tNoT00z-20" value="" style="endArrow=classicThin;html=1;rounded=0;exitX=0.5;exitY=1;exitDx=0;exitDy=0;endFill=1;entryX=0.5;entryY=0;entryDx=0;entryDy=0;" parent="1" source="Rub5kGw6FLc-8tNoT00z-19" target="Rub5kGw6FLc-8tNoT00z-21" edge="1">
          <mxGeometry width="50" height="50" relative="1" as="geometry">
            <mxPoint x="42" y="1068" as="sourcePoint" />
            <mxPoint x="42" y="1083" as="targetPoint" />
          </mxGeometry>
        </mxCell>
        <mxCell id="Rub5kGw6FLc-8tNoT00z-21" value="SPPF" style="rounded=1;whiteSpace=wrap;html=1;" parent="1" vertex="1">
          <mxGeometry x="17" y="1088" width="80" height="20" as="geometry" />
        </mxCell>
        <mxCell id="Rub5kGw6FLc-8tNoT00z-22" value="Concat" style="rounded=1;whiteSpace=wrap;html=1;" parent="1" vertex="1">
          <mxGeometry x="117" y="978" width="80" height="20" as="geometry" />
        </mxCell>
        <mxCell id="Rub5kGw6FLc-8tNoT00z-23" value="" style="endArrow=classicThin;html=1;rounded=0;endFill=1;exitX=0.5;exitY=0;exitDx=0;exitDy=0;entryX=0.5;entryY=1;entryDx=0;entryDy=0;" parent="1" source="Rub5kGw6FLc-8tNoT00z-27" target="Rub5kGw6FLc-8tNoT00z-22" edge="1">
          <mxGeometry width="50" height="50" relative="1" as="geometry">
            <mxPoint x="142" y="1018" as="sourcePoint" />
            <mxPoint x="152" y="1008" as="targetPoint" />
          </mxGeometry>
        </mxCell>
        <mxCell id="Rub5kGw6FLc-8tNoT00z-24" value="Concat" style="rounded=1;whiteSpace=wrap;html=1;" parent="1" vertex="1">
          <mxGeometry x="117" y="873" width="80" height="20" as="geometry" />
        </mxCell>
        <mxCell id="Rub5kGw6FLc-8tNoT00z-80" style="edgeStyle=orthogonalEdgeStyle;rounded=0;orthogonalLoop=1;jettySize=auto;html=1;exitX=1;exitY=0.5;exitDx=0;exitDy=0;entryX=0;entryY=0.5;entryDx=0;entryDy=0;" parent="1" source="Rub5kGw6FLc-8tNoT00z-25" target="Rub5kGw6FLc-8tNoT00z-65" edge="1">
          <mxGeometry relative="1" as="geometry" />
        </mxCell>
        <mxCell id="Rub5kGw6FLc-8tNoT00z-25" value="Ghost-C2f" style="rounded=1;whiteSpace=wrap;html=1;" parent="1" vertex="1">
          <mxGeometry x="117" y="841" width="80" height="20" as="geometry" />
        </mxCell>
        <mxCell id="Rub5kGw6FLc-8tNoT00z-81" style="edgeStyle=orthogonalEdgeStyle;rounded=0;orthogonalLoop=1;jettySize=auto;html=1;entryX=0;entryY=0.5;entryDx=0;entryDy=0;" parent="1" source="Rub5kGw6FLc-8tNoT00z-26" target="Rub5kGw6FLc-8tNoT00z-31" edge="1">
          <mxGeometry relative="1" as="geometry" />
        </mxCell>
        <mxCell id="Rub5kGw6FLc-8tNoT00z-26" value="Ghost-C2f" style="rounded=1;whiteSpace=wrap;html=1;" parent="1" vertex="1">
          <mxGeometry x="117" y="943" width="80" height="20" as="geometry" />
        </mxCell>
        <mxCell id="Rub5kGw6FLc-8tNoT00z-27" value="Upsample" style="rounded=1;whiteSpace=wrap;html=1;" parent="1" vertex="1">
          <mxGeometry x="117" y="1033" width="80" height="20" as="geometry" />
        </mxCell>
        <mxCell id="Rub5kGw6FLc-8tNoT00z-29" value="" style="endArrow=classicThin;html=1;rounded=0;endFill=1;entryX=0.5;entryY=0;entryDx=0;entryDy=0;exitX=0.5;exitY=1;exitDx=0;exitDy=0;" parent="1" source="Rub5kGw6FLc-8tNoT00z-54" target="Rub5kGw6FLc-8tNoT00z-30" edge="1">
          <mxGeometry width="50" height="50" relative="1" as="geometry">
            <mxPoint x="276.83" y="848" as="sourcePoint" />
            <mxPoint x="277" y="892" as="targetPoint" />
          </mxGeometry>
        </mxCell>
        <mxCell id="Rub5kGw6FLc-8tNoT00z-30" value="NSC-MFFM" style="rounded=1;whiteSpace=wrap;html=1;" parent="1" vertex="1">
          <mxGeometry x="237" y="903" width="80" height="20" as="geometry" />
        </mxCell>
        <mxCell id="Rub5kGw6FLc-8tNoT00z-31" value="Concat" style="rounded=1;whiteSpace=wrap;html=1;" parent="1" vertex="1">
          <mxGeometry x="237" y="943" width="80" height="20" as="geometry" />
        </mxCell>
        <mxCell id="Rub5kGw6FLc-8tNoT00z-32" value="Ghost-C2f" style="rounded=1;whiteSpace=wrap;html=1;" parent="1" vertex="1">
          <mxGeometry x="237" y="978" width="80" height="20" as="geometry" />
        </mxCell>
        <mxCell id="Rub5kGw6FLc-8tNoT00z-33" value="NSC-MFFM" style="rounded=1;whiteSpace=wrap;html=1;" parent="1" vertex="1">
          <mxGeometry x="237" y="1083" width="80" height="20" as="geometry" />
        </mxCell>
        <mxCell id="Rub5kGw6FLc-8tNoT00z-34" value="Concat" style="rounded=1;whiteSpace=wrap;html=1;" parent="1" vertex="1">
          <mxGeometry x="237" y="1118" width="80" height="20" as="geometry" />
        </mxCell>
        <mxCell id="Rub5kGw6FLc-8tNoT00z-35" value="Ghost-C2f" style="rounded=1;whiteSpace=wrap;html=1;" parent="1" vertex="1">
          <mxGeometry x="237" y="1158" width="80" height="20" as="geometry" />
        </mxCell>
        <mxCell id="Rub5kGw6FLc-8tNoT00z-36" value="" style="endArrow=classicThin;html=1;rounded=0;endFill=1;exitX=0.5;exitY=1;exitDx=0;exitDy=0;entryX=0.5;entryY=0;entryDx=0;entryDy=0;" parent="1" source="Rub5kGw6FLc-8tNoT00z-30" target="Rub5kGw6FLc-8tNoT00z-31" edge="1">
          <mxGeometry width="50" height="50" relative="1" as="geometry">
            <mxPoint x="241.77999999999997" y="908" as="sourcePoint" />
            <mxPoint x="242" y="923" as="targetPoint" />
          </mxGeometry>
        </mxCell>
        <mxCell id="Rub5kGw6FLc-8tNoT00z-37" value="" style="endArrow=classicThin;html=1;rounded=0;endFill=1;entryX=0.5;entryY=0;entryDx=0;entryDy=0;exitX=0.5;exitY=1;exitDx=0;exitDy=0;" parent="1" source="Rub5kGw6FLc-8tNoT00z-31" target="Rub5kGw6FLc-8tNoT00z-32" edge="1">
          <mxGeometry width="50" height="50" relative="1" as="geometry">
            <mxPoint x="242" y="963" as="sourcePoint" />
            <mxPoint x="241.81999999999994" y="978" as="targetPoint" />
          </mxGeometry>
        </mxCell>
        <mxCell id="Rub5kGw6FLc-8tNoT00z-39" value="" style="endArrow=classicThin;html=1;rounded=0;endFill=1;exitX=0.5;exitY=1;exitDx=0;exitDy=0;entryX=0.5;entryY=0;entryDx=0;entryDy=0;" parent="1" source="Rub5kGw6FLc-8tNoT00z-33" target="Rub5kGw6FLc-8tNoT00z-34" edge="1">
          <mxGeometry width="50" height="50" relative="1" as="geometry">
            <mxPoint x="241.87" y="1088" as="sourcePoint" />
            <mxPoint x="242" y="1113" as="targetPoint" />
          </mxGeometry>
        </mxCell>
        <mxCell id="Rub5kGw6FLc-8tNoT00z-40" value="" style="endArrow=classicThin;html=1;rounded=0;endFill=1;exitX=0.5;exitY=0;exitDx=0;exitDy=0;" parent="1" edge="1">
          <mxGeometry width="50" height="50" relative="1" as="geometry">
            <mxPoint x="276.83" y="1138" as="sourcePoint" />
            <mxPoint x="276.92" y="1158" as="targetPoint" />
          </mxGeometry>
        </mxCell>
        <mxCell id="Rub5kGw6FLc-8tNoT00z-43" value="" style="endArrow=classic;html=1;rounded=0;exitX=1;exitY=0.5;exitDx=0;exitDy=0;entryX=0;entryY=0.5;entryDx=0;entryDy=0;" parent="1" source="Rub5kGw6FLc-8tNoT00z-21" target="Rub5kGw6FLc-8tNoT00z-34" edge="1">
          <mxGeometry width="50" height="50" relative="1" as="geometry">
            <mxPoint x="132" y="1128" as="sourcePoint" />
            <mxPoint x="182" y="1078" as="targetPoint" />
            <Array as="points">
              <mxPoint x="157" y="1098" />
            </Array>
          </mxGeometry>
        </mxCell>
        <mxCell id="Rub5kGw6FLc-8tNoT00z-44" value="" style="endArrow=classicThin;html=1;rounded=0;endFill=1;entryX=0.5;entryY=1;entryDx=0;entryDy=0;" parent="1" target="Rub5kGw6FLc-8tNoT00z-27" edge="1">
          <mxGeometry width="50" height="50" relative="1" as="geometry">
            <mxPoint x="157" y="1098" as="sourcePoint" />
            <mxPoint x="151.87" y="1058" as="targetPoint" />
          </mxGeometry>
        </mxCell>
        <mxCell id="Rub5kGw6FLc-8tNoT00z-45" value="" style="endArrow=classic;html=1;rounded=0;" parent="1" edge="1">
          <mxGeometry width="50" height="50" relative="1" as="geometry">
            <mxPoint x="97" y="988" as="sourcePoint" />
            <mxPoint x="117" y="988" as="targetPoint" />
          </mxGeometry>
        </mxCell>
        <mxCell id="Rub5kGw6FLc-8tNoT00z-46" value="Upsample" style="rounded=1;whiteSpace=wrap;html=1;" parent="1" vertex="1">
          <mxGeometry x="117" y="908" width="80" height="20" as="geometry" />
        </mxCell>
        <mxCell id="Rub5kGw6FLc-8tNoT00z-47" value="" style="endArrow=classicThin;html=1;rounded=0;endFill=1;entryX=0.5;entryY=1;entryDx=0;entryDy=0;exitX=0.5;exitY=0;exitDx=0;exitDy=0;" parent="1" source="Rub5kGw6FLc-8tNoT00z-22" target="Rub5kGw6FLc-8tNoT00z-26" edge="1">
          <mxGeometry width="50" height="50" relative="1" as="geometry">
            <mxPoint x="151.90999999999997" y="978" as="sourcePoint" />
            <mxPoint x="151.90999999999997" y="959" as="targetPoint" />
          </mxGeometry>
        </mxCell>
        <mxCell id="Rub5kGw6FLc-8tNoT00z-48" value="" style="endArrow=classicThin;html=1;rounded=0;endFill=1;entryX=0.499;entryY=1.069;entryDx=0;entryDy=0;entryPerimeter=0;exitX=0.436;exitY=-0.016;exitDx=0;exitDy=0;exitPerimeter=0;" parent="1" edge="1">
          <mxGeometry width="50" height="50" relative="1" as="geometry">
            <mxPoint x="156.94" y="943.0000000000001" as="sourcePoint" />
            <mxPoint x="156.96999999999997" y="928.32" as="targetPoint" />
          </mxGeometry>
        </mxCell>
        <mxCell id="Rub5kGw6FLc-8tNoT00z-49" value="" style="endArrow=classicThin;html=1;rounded=0;endFill=1;entryX=0.497;entryY=1.046;entryDx=0;entryDy=0;entryPerimeter=0;" parent="1" target="Rub5kGw6FLc-8tNoT00z-24" edge="1">
          <mxGeometry width="50" height="50" relative="1" as="geometry">
            <mxPoint x="157" y="908" as="sourcePoint" />
            <mxPoint x="151.90999999999997" y="896" as="targetPoint" />
          </mxGeometry>
        </mxCell>
        <mxCell id="Rub5kGw6FLc-8tNoT00z-50" value="" style="endArrow=classic;html=1;rounded=0;entryX=0;entryY=0.5;entryDx=0;entryDy=0;exitX=1;exitY=0.5;exitDx=0;exitDy=0;" parent="1" source="Rub5kGw6FLc-8tNoT00z-11" target="Rub5kGw6FLc-8tNoT00z-24" edge="1">
          <mxGeometry width="50" height="50" relative="1" as="geometry">
            <mxPoint x="82" y="887.6899999999999" as="sourcePoint" />
            <mxPoint x="122" y="887.88" as="targetPoint" />
          </mxGeometry>
        </mxCell>
        <mxCell id="Rub5kGw6FLc-8tNoT00z-51" value="" style="endArrow=classicThin;html=1;rounded=0;endFill=1;exitX=0.5;exitY=0;exitDx=0;exitDy=0;entryX=0.5;entryY=1;entryDx=0;entryDy=0;" parent="1" target="Rub5kGw6FLc-8tNoT00z-25" edge="1">
          <mxGeometry width="50" height="50" relative="1" as="geometry">
            <mxPoint x="156.85999999999996" y="873" as="sourcePoint" />
            <mxPoint x="156.95" y="859" as="targetPoint" />
          </mxGeometry>
        </mxCell>
        <mxCell id="Rub5kGw6FLc-8tNoT00z-54" value="C-Cot" style="rounded=1;whiteSpace=wrap;html=1;" parent="1" vertex="1">
          <mxGeometry x="237" y="864" width="80" height="20" as="geometry" />
        </mxCell>
        <mxCell id="Rub5kGw6FLc-8tNoT00z-55" value="Upsample" style="rounded=1;whiteSpace=wrap;html=1;" parent="1" vertex="1">
          <mxGeometry x="117" y="808" width="80" height="20" as="geometry" />
        </mxCell>
        <mxCell id="Rub5kGw6FLc-8tNoT00z-56" value="Concat" style="rounded=1;whiteSpace=wrap;html=1;" parent="1" vertex="1">
          <mxGeometry x="117" y="776" width="80" height="20" as="geometry" />
        </mxCell>
        <mxCell id="Rub5kGw6FLc-8tNoT00z-57" value="" style="endArrow=classicThin;html=1;rounded=0;endFill=1;exitX=0.5;exitY=0;exitDx=0;exitDy=0;entryX=0.5;entryY=1;entryDx=0;entryDy=0;" parent="1" source="Rub5kGw6FLc-8tNoT00z-25" target="Rub5kGw6FLc-8tNoT00z-55" edge="1">
          <mxGeometry width="50" height="50" relative="1" as="geometry">
            <mxPoint x="156.79999999999995" y="838" as="sourcePoint" />
            <mxPoint x="157" y="828" as="targetPoint" />
          </mxGeometry>
        </mxCell>
        <mxCell id="Rub5kGw6FLc-8tNoT00z-58" value="" style="endArrow=classicThin;html=1;rounded=0;endFill=1;exitX=0.5;exitY=0;exitDx=0;exitDy=0;entryX=0.5;entryY=1;entryDx=0;entryDy=0;" parent="1" edge="1">
          <mxGeometry width="50" height="50" relative="1" as="geometry">
            <mxPoint x="156.85999999999996" y="808" as="sourcePoint" />
            <mxPoint x="157" y="796" as="targetPoint" />
          </mxGeometry>
        </mxCell>
        <mxCell id="Rub5kGw6FLc-8tNoT00z-60" value="" style="endArrow=classic;html=1;rounded=0;entryX=0;entryY=0.5;entryDx=0;entryDy=0;exitX=1;exitY=0.5;exitDx=0;exitDy=0;" parent="1" edge="1">
          <mxGeometry width="50" height="50" relative="1" as="geometry">
            <mxPoint x="97" y="787.86" as="sourcePoint" />
            <mxPoint x="117" y="787.86" as="targetPoint" />
          </mxGeometry>
        </mxCell>
        <mxCell id="Rub5kGw6FLc-8tNoT00z-61" value="Ghost-C2f" style="rounded=1;whiteSpace=wrap;html=1;" parent="1" vertex="1">
          <mxGeometry x="117" y="743" width="80" height="20" as="geometry" />
        </mxCell>
        <mxCell id="Rub5kGw6FLc-8tNoT00z-62" value="" style="endArrow=classicThin;html=1;rounded=0;endFill=1;exitX=0.5;exitY=0;exitDx=0;exitDy=0;entryX=0.5;entryY=1;entryDx=0;entryDy=0;" parent="1" edge="1">
          <mxGeometry width="50" height="50" relative="1" as="geometry">
            <mxPoint x="156.93" y="776" as="sourcePoint" />
            <mxPoint x="156.93" y="763" as="targetPoint" />
          </mxGeometry>
        </mxCell>
        <mxCell id="Rub5kGw6FLc-8tNoT00z-63" value="C-Cot" style="rounded=1;whiteSpace=wrap;html=1;" parent="1" vertex="1">
          <mxGeometry x="237" y="714" width="80" height="20" as="geometry" />
        </mxCell>
        <mxCell id="Rub5kGw6FLc-8tNoT00z-64" value="NSC-MFFM" style="rounded=1;whiteSpace=wrap;html=1;" parent="1" vertex="1">
          <mxGeometry x="237" y="750" width="80" height="20" as="geometry" />
        </mxCell>
        <mxCell id="Rub5kGw6FLc-8tNoT00z-65" value="Concat" style="rounded=1;whiteSpace=wrap;html=1;" parent="1" vertex="1">
          <mxGeometry x="237" y="788" width="80" height="20" as="geometry" />
        </mxCell>
        <mxCell id="Rub5kGw6FLc-8tNoT00z-66" value="Ghost-C2f" style="rounded=1;whiteSpace=wrap;html=1;" parent="1" vertex="1">
          <mxGeometry x="237" y="823" width="80" height="20" as="geometry" />
        </mxCell>
        <mxCell id="Rub5kGw6FLc-8tNoT00z-67" value="C-Cot" style="rounded=1;whiteSpace=wrap;html=1;" parent="1" vertex="1">
          <mxGeometry x="237" y="1016" width="80" height="20" as="geometry" />
        </mxCell>
        <mxCell id="Rub5kGw6FLc-8tNoT00z-69" value="C-Cot" style="rounded=1;whiteSpace=wrap;html=1;" parent="1" vertex="1">
          <mxGeometry x="237" y="1193" width="80" height="20" as="geometry" />
        </mxCell>
        <mxCell id="Rub5kGw6FLc-8tNoT00z-70" value="" style="endArrow=none;html=1;rounded=0;" parent="1" edge="1">
          <mxGeometry width="50" height="50" relative="1" as="geometry">
            <mxPoint x="157" y="743" as="sourcePoint" />
            <mxPoint x="157" y="723" as="targetPoint" />
          </mxGeometry>
        </mxCell>
        <mxCell id="Rub5kGw6FLc-8tNoT00z-71" value="" style="endArrow=classic;html=1;rounded=0;entryX=0;entryY=0.5;entryDx=0;entryDy=0;" parent="1" edge="1">
          <mxGeometry width="50" height="50" relative="1" as="geometry">
            <mxPoint x="157" y="723" as="sourcePoint" />
            <mxPoint x="237" y="723.76" as="targetPoint" />
          </mxGeometry>
        </mxCell>
        <mxCell id="Rub5kGw6FLc-8tNoT00z-73" value="" style="endArrow=classicThin;html=1;rounded=0;endFill=1;exitX=0.5;exitY=1;exitDx=0;exitDy=0;entryX=0.5;entryY=0;entryDx=0;entryDy=0;" parent="1" target="Rub5kGw6FLc-8tNoT00z-67" edge="1">
          <mxGeometry width="50" height="50" relative="1" as="geometry">
            <mxPoint x="276.86" y="998" as="sourcePoint" />
            <mxPoint x="276.86" y="1013" as="targetPoint" />
          </mxGeometry>
        </mxCell>
        <mxCell id="Rub5kGw6FLc-8tNoT00z-74" value="" style="endArrow=classicThin;html=1;rounded=0;endFill=1;exitX=0.5;exitY=1;exitDx=0;exitDy=0;entryX=0.5;entryY=0;entryDx=0;entryDy=0;" parent="1" source="Rub5kGw6FLc-8tNoT00z-67" edge="1" target="Rub5kGw6FLc-8tNoT00z-33">
          <mxGeometry width="50" height="50" relative="1" as="geometry">
            <mxPoint x="276.86" y="1038" as="sourcePoint" />
            <mxPoint x="276.86" y="1053" as="targetPoint" />
          </mxGeometry>
        </mxCell>
        <mxCell id="Rub5kGw6FLc-8tNoT00z-77" value="" style="endArrow=classicThin;html=1;rounded=0;endFill=1;entryX=0.5;entryY=0;entryDx=0;entryDy=0;exitX=0.5;exitY=1;exitDx=0;exitDy=0;" parent="1" source="Rub5kGw6FLc-8tNoT00z-65" target="Rub5kGw6FLc-8tNoT00z-66" edge="1">
          <mxGeometry width="50" height="50" relative="1" as="geometry">
            <mxPoint x="276.9" y="812" as="sourcePoint" />
            <mxPoint x="276.83" y="824" as="targetPoint" />
          </mxGeometry>
        </mxCell>
        <mxCell id="Rub5kGw6FLc-8tNoT00z-78" value="" style="endArrow=classicThin;html=1;rounded=0;endFill=1;exitX=0.5;exitY=1;exitDx=0;exitDy=0;entryX=0.5;entryY=0;entryDx=0;entryDy=0;" parent="1" target="Rub5kGw6FLc-8tNoT00z-65" edge="1">
          <mxGeometry width="50" height="50" relative="1" as="geometry">
            <mxPoint x="276.93" y="770" as="sourcePoint" />
            <mxPoint x="277" y="787" as="targetPoint" />
          </mxGeometry>
        </mxCell>
        <mxCell id="Rub5kGw6FLc-8tNoT00z-79" value="" style="endArrow=classicThin;html=1;rounded=0;endFill=1;exitX=0.5;exitY=1;exitDx=0;exitDy=0;entryX=0.5;entryY=0;entryDx=0;entryDy=0;" parent="1" target="Rub5kGw6FLc-8tNoT00z-64" edge="1">
          <mxGeometry width="50" height="50" relative="1" as="geometry">
            <mxPoint x="276.93" y="734" as="sourcePoint" />
            <mxPoint x="276.93" y="749" as="targetPoint" />
          </mxGeometry>
        </mxCell>
        <mxCell id="Rub5kGw6FLc-8tNoT00z-84" value="" style="endArrow=classicThin;html=1;rounded=0;endFill=1;entryX=0.5;entryY=0;entryDx=0;entryDy=0;exitX=0.5;exitY=1;exitDx=0;exitDy=0;" parent="1" target="Rub5kGw6FLc-8tNoT00z-54" edge="1">
          <mxGeometry width="50" height="50" relative="1" as="geometry">
            <mxPoint x="277.07" y="843" as="sourcePoint" />
            <mxPoint x="276.9" y="859" as="targetPoint" />
          </mxGeometry>
        </mxCell>
        <mxCell id="Rub5kGw6FLc-8tNoT00z-85" value="" style="endArrow=classicThin;html=1;rounded=0;endFill=1;exitX=0.5;exitY=0;exitDx=0;exitDy=0;" parent="1" edge="1">
          <mxGeometry width="50" height="50" relative="1" as="geometry">
            <mxPoint x="276.88" y="1178" as="sourcePoint" />
            <mxPoint x="277" y="1192" as="targetPoint" />
          </mxGeometry>
        </mxCell>
        <mxCell id="Rub5kGw6FLc-8tNoT00z-86" value="" style="endArrow=classic;html=1;rounded=0;" parent="1" edge="1">
          <mxGeometry width="50" height="50" relative="1" as="geometry">
            <mxPoint x="317" y="723.7099999999999" as="sourcePoint" />
            <mxPoint x="407" y="723.93" as="targetPoint" />
          </mxGeometry>
        </mxCell>
        <mxCell id="Rub5kGw6FLc-8tNoT00z-87" value="" style="endArrow=classic;html=1;rounded=0;" parent="1" edge="1">
          <mxGeometry width="50" height="50" relative="1" as="geometry">
            <mxPoint x="317" y="873" as="sourcePoint" />
            <mxPoint x="407" y="873.22" as="targetPoint" />
          </mxGeometry>
        </mxCell>
        <mxCell id="Rub5kGw6FLc-8tNoT00z-88" value="" style="endArrow=classic;html=1;rounded=0;" parent="1" edge="1">
          <mxGeometry width="50" height="50" relative="1" as="geometry">
            <mxPoint x="317" y="1025.71" as="sourcePoint" />
            <mxPoint x="407" y="1025.9299999999998" as="targetPoint" />
          </mxGeometry>
        </mxCell>
        <mxCell id="Rub5kGw6FLc-8tNoT00z-89" value="" style="endArrow=classic;html=1;rounded=0;" parent="1" edge="1">
          <mxGeometry width="50" height="50" relative="1" as="geometry">
            <mxPoint x="317" y="1202.71" as="sourcePoint" />
            <mxPoint x="407" y="1202.9299999999998" as="targetPoint" />
          </mxGeometry>
        </mxCell>
        <mxCell id="Rub5kGw6FLc-8tNoT00z-90" value="Detect" style="rounded=1;whiteSpace=wrap;html=1;" parent="1" vertex="1">
          <mxGeometry x="381" y="170" width="60" height="20" as="geometry" />
        </mxCell>
        <mxCell id="Rub5kGw6FLc-8tNoT00z-91" value="Detect" style="rounded=1;whiteSpace=wrap;html=1;" parent="1" vertex="1">
          <mxGeometry x="381" y="320" width="60" height="20" as="geometry" />
        </mxCell>
        <mxCell id="Rub5kGw6FLc-8tNoT00z-92" value="Detect" style="rounded=1;whiteSpace=wrap;html=1;" parent="1" vertex="1">
          <mxGeometry x="381" y="460" width="60" height="20" as="geometry" />
        </mxCell>
        <mxCell id="Rub5kGw6FLc-8tNoT00z-93" value="Detect" style="rounded=1;whiteSpace=wrap;html=1;" parent="1" vertex="1">
          <mxGeometry x="408" y="864" width="80" height="20" as="geometry" />
        </mxCell>
        <mxCell id="Rub5kGw6FLc-8tNoT00z-94" value="Detect" style="rounded=1;whiteSpace=wrap;html=1;" parent="1" vertex="1">
          <mxGeometry x="408" y="714" width="80" height="20" as="geometry" />
        </mxCell>
        <mxCell id="Rub5kGw6FLc-8tNoT00z-95" value="Detect" style="rounded=1;whiteSpace=wrap;html=1;" parent="1" vertex="1">
          <mxGeometry x="408" y="1016" width="80" height="20" as="geometry" />
        </mxCell>
        <mxCell id="Rub5kGw6FLc-8tNoT00z-96" value="Detect" style="rounded=1;whiteSpace=wrap;html=1;" parent="1" vertex="1">
          <mxGeometry x="408" y="1193" width="80" height="20" as="geometry" />
        </mxCell>
        <mxCell id="Rub5kGw6FLc-8tNoT00z-98" value="" style="endArrow=none;dashed=1;html=1;dashPattern=1 3;strokeWidth=2;rounded=0;" parent="1" edge="1">
          <mxGeometry width="50" height="50" relative="1" as="geometry">
            <mxPoint x="211" y="1079" as="sourcePoint" />
            <mxPoint x="537" y="1078" as="targetPoint" />
          </mxGeometry>
        </mxCell>
        <mxCell id="Rub5kGw6FLc-8tNoT00z-99" value="" style="endArrow=none;dashed=1;html=1;dashPattern=1 3;strokeWidth=2;rounded=0;" parent="1" edge="1">
          <mxGeometry width="50" height="50" relative="1" as="geometry">
            <mxPoint x="212" y="1078" as="sourcePoint" />
            <mxPoint x="212" y="1228" as="targetPoint" />
          </mxGeometry>
        </mxCell>
        <mxCell id="Rub5kGw6FLc-8tNoT00z-100" value="" style="endArrow=none;dashed=1;html=1;dashPattern=1 3;strokeWidth=2;rounded=0;" parent="1" edge="1">
          <mxGeometry width="50" height="50" relative="1" as="geometry">
            <mxPoint x="212" y="1224" as="sourcePoint" />
            <mxPoint x="538" y="1223" as="targetPoint" />
          </mxGeometry>
        </mxCell>
        <mxCell id="Rub5kGw6FLc-8tNoT00z-101" value="" style="endArrow=none;dashed=1;html=1;dashPattern=1 3;strokeWidth=2;rounded=0;" parent="1" edge="1">
          <mxGeometry width="50" height="50" relative="1" as="geometry">
            <mxPoint x="537" y="1078" as="sourcePoint" />
            <mxPoint x="537" y="1223" as="targetPoint" />
          </mxGeometry>
        </mxCell>
        <mxCell id="Rub5kGw6FLc-8tNoT00z-102" value="" style="endArrow=none;dashed=1;html=1;dashPattern=1 3;strokeWidth=2;rounded=0;" parent="1" edge="1">
          <mxGeometry width="50" height="50" relative="1" as="geometry">
            <mxPoint x="42" y="1164.9299999999998" as="sourcePoint" />
            <mxPoint x="87" y="1165" as="targetPoint" />
          </mxGeometry>
        </mxCell>
        <mxCell id="Rub5kGw6FLc-8tNoT00z-103" value="" style="endArrow=none;dashed=1;html=1;dashPattern=1 3;strokeWidth=2;rounded=0;" parent="1" edge="1">
          <mxGeometry width="50" height="50" relative="1" as="geometry">
            <mxPoint x="42" y="1165" as="sourcePoint" />
            <mxPoint x="42" y="1185" as="targetPoint" />
          </mxGeometry>
        </mxCell>
        <mxCell id="Rub5kGw6FLc-8tNoT00z-104" value="" style="endArrow=none;dashed=1;html=1;dashPattern=1 3;strokeWidth=2;rounded=0;" parent="1" edge="1">
          <mxGeometry width="50" height="50" relative="1" as="geometry">
            <mxPoint x="42" y="1185" as="sourcePoint" />
            <mxPoint x="87" y="1185" as="targetPoint" />
          </mxGeometry>
        </mxCell>
        <mxCell id="Rub5kGw6FLc-8tNoT00z-105" value="" style="endArrow=none;dashed=1;html=1;dashPattern=1 3;strokeWidth=2;rounded=0;" parent="1" edge="1">
          <mxGeometry width="50" height="50" relative="1" as="geometry">
            <mxPoint x="82" y="1165" as="sourcePoint" />
            <mxPoint x="82" y="1185" as="targetPoint" />
            <Array as="points" />
          </mxGeometry>
        </mxCell>
        <mxCell id="Rub5kGw6FLc-8tNoT00z-106" value="未采用" style="text;html=1;align=center;verticalAlign=middle;resizable=0;points=[];autosize=1;strokeColor=none;fillColor=none;" parent="1" vertex="1">
          <mxGeometry x="92" y="1158" width="55" height="30" as="geometry" />
        </mxCell>
        <mxCell id="4ua4i173Vcqf4zET9SU8-1" value="L4" style="text;html=1;align=center;verticalAlign=middle;resizable=0;points=[];autosize=1;strokeColor=none;fillColor=none;" parent="1" vertex="1">
          <mxGeometry x="299" y="683" width="31" height="26" as="geometry" />
        </mxCell>
        <mxCell id="4ua4i173Vcqf4zET9SU8-2" value="L1" style="text;html=1;align=center;verticalAlign=middle;resizable=0;points=[];autosize=1;strokeColor=none;fillColor=none;" parent="1" vertex="1">
          <mxGeometry x="318" y="843" width="31" height="26" as="geometry" />
        </mxCell>
        <mxCell id="4ua4i173Vcqf4zET9SU8-3" value="L2" style="text;html=1;align=center;verticalAlign=middle;resizable=0;points=[];autosize=1;strokeColor=none;fillColor=none;" parent="1" vertex="1">
          <mxGeometry x="318" y="1001" width="31" height="26" as="geometry" />
        </mxCell>
        <mxCell id="4ua4i173Vcqf4zET9SU8-4" value="L3" style="text;html=1;align=center;verticalAlign=middle;resizable=0;points=[];autosize=1;strokeColor=none;fillColor=none;" parent="1" vertex="1">
          <mxGeometry x="315" y="1176" width="31" height="26" as="geometry" />
        </mxCell>
        <mxCell id="4ua4i173Vcqf4zET9SU8-5" value="P4" style="text;html=1;align=center;verticalAlign=middle;resizable=0;points=[];autosize=1;strokeColor=none;fillColor=none;" parent="1" vertex="1">
          <mxGeometry x="175" y="1126" width="33" height="26" as="geometry" />
        </mxCell>
        <mxCell id="4ua4i173Vcqf4zET9SU8-6" value="P4" style="text;html=1;align=center;verticalAlign=middle;resizable=0;points=[];autosize=1;strokeColor=none;fillColor=none;" parent="1" vertex="1">
          <mxGeometry x="7" y="1162" width="33" height="26" as="geometry" />
        </mxCell>
        <mxCell id="4ua4i173Vcqf4zET9SU8-7" value="L1" style="text;html=1;align=center;verticalAlign=middle;resizable=0;points=[];autosize=1;strokeColor=none;fillColor=none;" parent="1" vertex="1">
          <mxGeometry x="189" y="144" width="31" height="26" as="geometry" />
        </mxCell>
        <mxCell id="4ua4i173Vcqf4zET9SU8-8" value="L2" style="text;html=1;align=center;verticalAlign=middle;resizable=0;points=[];autosize=1;strokeColor=none;fillColor=none;" parent="1" vertex="1">
          <mxGeometry x="285" y="300" width="31" height="26" as="geometry" />
        </mxCell>
        <mxCell id="4ua4i173Vcqf4zET9SU8-9" value="L3" style="text;html=1;align=center;verticalAlign=middle;resizable=0;points=[];autosize=1;strokeColor=none;fillColor=none;" parent="1" vertex="1">
          <mxGeometry x="288" y="441" width="31" height="26" as="geometry" />
        </mxCell>
        <mxCell id="HV-bgtho3TOBQOwCZQjI-11" value="NSC-MFFM" style="rounded=1;whiteSpace=wrap;html=1;" parent="1" vertex="1">
          <mxGeometry x="-152" y="1347" width="80" height="20" as="geometry" />
        </mxCell>
        <mxCell id="HV-bgtho3TOBQOwCZQjI-12" value="" style="endArrow=blockThin;html=1;rounded=0;exitX=0.5;exitY=1;exitDx=0;exitDy=0;endFill=1;entryX=0.5;entryY=0;entryDx=0;entryDy=0;jumpSize=4;" parent="1" source="HV-bgtho3TOBQOwCZQjI-11" target="HV-bgtho3TOBQOwCZQjI-13" edge="1">
          <mxGeometry width="50" height="50" relative="1" as="geometry">
            <mxPoint x="-17" y="1426" as="sourcePoint" />
            <mxPoint x="-127" y="1396" as="targetPoint" />
          </mxGeometry>
        </mxCell>
        <mxCell id="HV-bgtho3TOBQOwCZQjI-13" value="NSC-MFFM" style="rounded=1;whiteSpace=wrap;html=1;" parent="1" vertex="1">
          <mxGeometry x="-152" y="1379" width="80" height="20" as="geometry" />
        </mxCell>
        <mxCell id="HV-bgtho3TOBQOwCZQjI-14" value="" style="endArrow=classicThin;html=1;rounded=0;exitX=0.5;exitY=1;exitDx=0;exitDy=0;endFill=1;entryX=0.5;entryY=0;entryDx=0;entryDy=0;" parent="1" source="HV-bgtho3TOBQOwCZQjI-13" target="HV-bgtho3TOBQOwCZQjI-15" edge="1">
          <mxGeometry width="50" height="50" relative="1" as="geometry">
            <mxPoint x="-127" y="1421" as="sourcePoint" />
            <mxPoint x="-127" y="1436" as="targetPoint" />
          </mxGeometry>
        </mxCell>
        <mxCell id="HV-bgtho3TOBQOwCZQjI-15" value="Ghost-C2f" style="rounded=1;whiteSpace=wrap;html=1;" parent="1" vertex="1">
          <mxGeometry x="-152" y="1411" width="80" height="20" as="geometry" />
        </mxCell>
        <mxCell id="HV-bgtho3TOBQOwCZQjI-16" value="" style="endArrow=classicThin;html=1;rounded=0;exitX=0.5;exitY=1;exitDx=0;exitDy=0;endFill=1;entryX=0.5;entryY=0;entryDx=0;entryDy=0;" parent="1" edge="1">
          <mxGeometry width="50" height="50" relative="1" as="geometry">
            <mxPoint x="-111.99999999999999" y="1327" as="sourcePoint" />
            <mxPoint x="-111.99999999999999" y="1347" as="targetPoint" />
          </mxGeometry>
        </mxCell>
        <mxCell id="HV-bgtho3TOBQOwCZQjI-18" value="" style="endArrow=classicThin;html=1;rounded=0;exitX=0.5;exitY=1;exitDx=0;exitDy=0;endFill=1;entryX=0.5;entryY=0;entryDx=0;entryDy=0;" parent="1" source="HV-bgtho3TOBQOwCZQjI-15" target="HV-bgtho3TOBQOwCZQjI-19" edge="1">
          <mxGeometry width="50" height="50" relative="1" as="geometry">
            <mxPoint x="-127" y="1461" as="sourcePoint" />
            <mxPoint x="-127" y="1476" as="targetPoint" />
          </mxGeometry>
        </mxCell>
        <mxCell id="HV-bgtho3TOBQOwCZQjI-19" value="NSC-MFFM" style="rounded=1;whiteSpace=wrap;html=1;" parent="1" vertex="1">
          <mxGeometry x="-152" y="1456" width="80" height="20" as="geometry" />
        </mxCell>
        <mxCell id="HV-bgtho3TOBQOwCZQjI-20" value="" style="endArrow=classicThin;html=1;rounded=0;exitX=0.5;exitY=1;exitDx=0;exitDy=0;endFill=1;entryX=0.5;entryY=0;entryDx=0;entryDy=0;" parent="1" source="HV-bgtho3TOBQOwCZQjI-19" target="HV-bgtho3TOBQOwCZQjI-21" edge="1">
          <mxGeometry width="50" height="50" relative="1" as="geometry">
            <mxPoint x="-127" y="1501" as="sourcePoint" />
            <mxPoint x="-127" y="1516" as="targetPoint" />
          </mxGeometry>
        </mxCell>
        <mxCell id="HV-bgtho3TOBQOwCZQjI-21" value="Ghost-C2f" style="rounded=1;whiteSpace=wrap;html=1;" parent="1" vertex="1">
          <mxGeometry x="-152" y="1506" width="80" height="20" as="geometry" />
        </mxCell>
        <mxCell id="HV-bgtho3TOBQOwCZQjI-22" value="" style="endArrow=classicThin;html=1;rounded=0;exitX=0.5;exitY=1;exitDx=0;exitDy=0;endFill=1;entryX=0.5;entryY=0;entryDx=0;entryDy=0;" parent="1" source="HV-bgtho3TOBQOwCZQjI-21" target="HV-bgtho3TOBQOwCZQjI-23" edge="1">
          <mxGeometry width="50" height="50" relative="1" as="geometry">
            <mxPoint x="-127" y="1541" as="sourcePoint" />
            <mxPoint x="-127" y="1556" as="targetPoint" />
          </mxGeometry>
        </mxCell>
        <mxCell id="HV-bgtho3TOBQOwCZQjI-23" value="NSC-MFFM" style="rounded=1;whiteSpace=wrap;html=1;" parent="1" vertex="1">
          <mxGeometry x="-152" y="1556" width="80" height="20" as="geometry" />
        </mxCell>
        <mxCell id="HV-bgtho3TOBQOwCZQjI-24" value="" style="endArrow=classicThin;html=1;rounded=0;exitX=0.5;exitY=1;exitDx=0;exitDy=0;endFill=1;entryX=0.5;entryY=0;entryDx=0;entryDy=0;" parent="1" source="HV-bgtho3TOBQOwCZQjI-23" target="HV-bgtho3TOBQOwCZQjI-25" edge="1">
          <mxGeometry width="50" height="50" relative="1" as="geometry">
            <mxPoint x="-127" y="1581" as="sourcePoint" />
            <mxPoint x="-127" y="1596" as="targetPoint" />
          </mxGeometry>
        </mxCell>
        <mxCell id="HV-bgtho3TOBQOwCZQjI-25" value="Ghost-C2f" style="rounded=1;whiteSpace=wrap;html=1;" parent="1" vertex="1">
          <mxGeometry x="-152" y="1611" width="80" height="20" as="geometry" />
        </mxCell>
        <mxCell id="HV-bgtho3TOBQOwCZQjI-26" value="" style="endArrow=classicThin;html=1;rounded=0;exitX=0.5;exitY=1;exitDx=0;exitDy=0;endFill=1;entryX=0.5;entryY=0;entryDx=0;entryDy=0;" parent="1" source="HV-bgtho3TOBQOwCZQjI-25" target="HV-bgtho3TOBQOwCZQjI-27" edge="1">
          <mxGeometry width="50" height="50" relative="1" as="geometry">
            <mxPoint x="-127" y="1621" as="sourcePoint" />
            <mxPoint x="-127" y="1636" as="targetPoint" />
          </mxGeometry>
        </mxCell>
        <mxCell id="HV-bgtho3TOBQOwCZQjI-27" value="NSC-MFFM" style="rounded=1;whiteSpace=wrap;html=1;" parent="1" vertex="1">
          <mxGeometry x="-152" y="1646" width="80" height="20" as="geometry" />
        </mxCell>
        <mxCell id="HV-bgtho3TOBQOwCZQjI-28" value="" style="endArrow=classicThin;html=1;rounded=0;exitX=0.5;exitY=1;exitDx=0;exitDy=0;endFill=1;entryX=0.5;entryY=0;entryDx=0;entryDy=0;" parent="1" source="HV-bgtho3TOBQOwCZQjI-27" target="HV-bgtho3TOBQOwCZQjI-29" edge="1">
          <mxGeometry width="50" height="50" relative="1" as="geometry">
            <mxPoint x="-127" y="1661" as="sourcePoint" />
            <mxPoint x="-127" y="1676" as="targetPoint" />
          </mxGeometry>
        </mxCell>
        <mxCell id="HV-bgtho3TOBQOwCZQjI-29" value="Ghost-C2f" style="rounded=1;whiteSpace=wrap;html=1;" parent="1" vertex="1">
          <mxGeometry x="-152" y="1681" width="80" height="20" as="geometry" />
        </mxCell>
        <mxCell id="HV-bgtho3TOBQOwCZQjI-30" value="" style="endArrow=classicThin;html=1;rounded=0;exitX=0.5;exitY=1;exitDx=0;exitDy=0;endFill=1;entryX=0.5;entryY=0;entryDx=0;entryDy=0;" parent="1" source="HV-bgtho3TOBQOwCZQjI-29" target="HV-bgtho3TOBQOwCZQjI-31" edge="1">
          <mxGeometry width="50" height="50" relative="1" as="geometry">
            <mxPoint x="-127" y="1701" as="sourcePoint" />
            <mxPoint x="-127" y="1716" as="targetPoint" />
          </mxGeometry>
        </mxCell>
        <mxCell id="HV-bgtho3TOBQOwCZQjI-31" value="SPPF" style="rounded=1;whiteSpace=wrap;html=1;" parent="1" vertex="1">
          <mxGeometry x="-152" y="1721" width="80" height="20" as="geometry" />
        </mxCell>
        <mxCell id="HV-bgtho3TOBQOwCZQjI-32" value="Concat" style="rounded=1;whiteSpace=wrap;html=1;" parent="1" vertex="1">
          <mxGeometry x="-52" y="1611" width="80" height="20" as="geometry" />
        </mxCell>
        <mxCell id="HV-bgtho3TOBQOwCZQjI-33" value="" style="endArrow=classicThin;html=1;rounded=0;endFill=1;exitX=0.5;exitY=0;exitDx=0;exitDy=0;entryX=0.5;entryY=1;entryDx=0;entryDy=0;" parent="1" source="HV-bgtho3TOBQOwCZQjI-39" target="HV-bgtho3TOBQOwCZQjI-32" edge="1">
          <mxGeometry width="50" height="50" relative="1" as="geometry">
            <mxPoint x="-27" y="1651" as="sourcePoint" />
            <mxPoint x="-17" y="1641" as="targetPoint" />
          </mxGeometry>
        </mxCell>
        <mxCell id="HV-bgtho3TOBQOwCZQjI-34" value="Concat" style="rounded=1;whiteSpace=wrap;html=1;" parent="1" vertex="1">
          <mxGeometry x="-52" y="1506" width="80" height="20" as="geometry" />
        </mxCell>
        <mxCell id="HV-bgtho3TOBQOwCZQjI-35" style="edgeStyle=orthogonalEdgeStyle;rounded=0;orthogonalLoop=1;jettySize=auto;html=1;exitX=1;exitY=0.5;exitDx=0;exitDy=0;entryX=0;entryY=0.5;entryDx=0;entryDy=0;" parent="1" source="HV-bgtho3TOBQOwCZQjI-36" target="HV-bgtho3TOBQOwCZQjI-70" edge="1">
          <mxGeometry relative="1" as="geometry" />
        </mxCell>
        <mxCell id="HV-bgtho3TOBQOwCZQjI-36" value="Ghost-C2f" style="rounded=1;whiteSpace=wrap;html=1;" parent="1" vertex="1">
          <mxGeometry x="-52" y="1474" width="80" height="20" as="geometry" />
        </mxCell>
        <mxCell id="HV-bgtho3TOBQOwCZQjI-37" style="edgeStyle=orthogonalEdgeStyle;rounded=0;orthogonalLoop=1;jettySize=auto;html=1;entryX=0;entryY=0.5;entryDx=0;entryDy=0;" parent="1" source="HV-bgtho3TOBQOwCZQjI-38" target="HV-bgtho3TOBQOwCZQjI-42" edge="1">
          <mxGeometry relative="1" as="geometry" />
        </mxCell>
        <mxCell id="HV-bgtho3TOBQOwCZQjI-38" value="Ghost-C2f" style="rounded=1;whiteSpace=wrap;html=1;" parent="1" vertex="1">
          <mxGeometry x="-52" y="1576" width="80" height="20" as="geometry" />
        </mxCell>
        <mxCell id="HV-bgtho3TOBQOwCZQjI-39" value="Upsample" style="rounded=1;whiteSpace=wrap;html=1;" parent="1" vertex="1">
          <mxGeometry x="-52" y="1666" width="80" height="20" as="geometry" />
        </mxCell>
        <mxCell id="HV-bgtho3TOBQOwCZQjI-40" value="" style="endArrow=classicThin;html=1;rounded=0;endFill=1;entryX=0.5;entryY=0;entryDx=0;entryDy=0;exitX=0.5;exitY=1;exitDx=0;exitDy=0;" parent="1" source="HV-bgtho3TOBQOwCZQjI-60" target="HV-bgtho3TOBQOwCZQjI-41" edge="1">
          <mxGeometry width="50" height="50" relative="1" as="geometry">
            <mxPoint x="107.82999999999998" y="1481" as="sourcePoint" />
            <mxPoint x="108" y="1525" as="targetPoint" />
          </mxGeometry>
        </mxCell>
        <mxCell id="HV-bgtho3TOBQOwCZQjI-41" value="NSC-MFFM" style="rounded=1;whiteSpace=wrap;html=1;" parent="1" vertex="1">
          <mxGeometry x="68" y="1536" width="80" height="20" as="geometry" />
        </mxCell>
        <mxCell id="HV-bgtho3TOBQOwCZQjI-42" value="Concat" style="rounded=1;whiteSpace=wrap;html=1;" parent="1" vertex="1">
          <mxGeometry x="68" y="1576" width="80" height="20" as="geometry" />
        </mxCell>
        <mxCell id="HV-bgtho3TOBQOwCZQjI-43" value="Ghost-C2f" style="rounded=1;whiteSpace=wrap;html=1;" parent="1" vertex="1">
          <mxGeometry x="68" y="1611" width="80" height="20" as="geometry" />
        </mxCell>
        <mxCell id="HV-bgtho3TOBQOwCZQjI-47" value="" style="endArrow=classicThin;html=1;rounded=0;endFill=1;exitX=0.5;exitY=1;exitDx=0;exitDy=0;entryX=0.5;entryY=0;entryDx=0;entryDy=0;" parent="1" source="HV-bgtho3TOBQOwCZQjI-41" target="HV-bgtho3TOBQOwCZQjI-42" edge="1">
          <mxGeometry width="50" height="50" relative="1" as="geometry">
            <mxPoint x="72.77999999999997" y="1541" as="sourcePoint" />
            <mxPoint x="73" y="1556" as="targetPoint" />
          </mxGeometry>
        </mxCell>
        <mxCell id="HV-bgtho3TOBQOwCZQjI-48" value="" style="endArrow=classicThin;html=1;rounded=0;endFill=1;entryX=0.5;entryY=0;entryDx=0;entryDy=0;exitX=0.5;exitY=1;exitDx=0;exitDy=0;" parent="1" source="HV-bgtho3TOBQOwCZQjI-42" target="HV-bgtho3TOBQOwCZQjI-43" edge="1">
          <mxGeometry width="50" height="50" relative="1" as="geometry">
            <mxPoint x="73" y="1596" as="sourcePoint" />
            <mxPoint x="72.81999999999994" y="1611" as="targetPoint" />
          </mxGeometry>
        </mxCell>
        <mxCell id="HV-bgtho3TOBQOwCZQjI-52" value="" style="endArrow=classicThin;html=1;rounded=0;endFill=1;entryX=0.5;entryY=1;entryDx=0;entryDy=0;" parent="1" target="HV-bgtho3TOBQOwCZQjI-39" edge="1">
          <mxGeometry width="50" height="50" relative="1" as="geometry">
            <mxPoint x="-12" y="1731" as="sourcePoint" />
            <mxPoint x="-17.129999999999995" y="1691" as="targetPoint" />
          </mxGeometry>
        </mxCell>
        <mxCell id="HV-bgtho3TOBQOwCZQjI-53" value="" style="endArrow=classic;html=1;rounded=0;" parent="1" edge="1">
          <mxGeometry width="50" height="50" relative="1" as="geometry">
            <mxPoint x="-72" y="1621" as="sourcePoint" />
            <mxPoint x="-52" y="1621" as="targetPoint" />
          </mxGeometry>
        </mxCell>
        <mxCell id="HV-bgtho3TOBQOwCZQjI-54" value="Upsample" style="rounded=1;whiteSpace=wrap;html=1;" parent="1" vertex="1">
          <mxGeometry x="-52" y="1541" width="80" height="20" as="geometry" />
        </mxCell>
        <mxCell id="HV-bgtho3TOBQOwCZQjI-55" value="" style="endArrow=classicThin;html=1;rounded=0;endFill=1;entryX=0.5;entryY=1;entryDx=0;entryDy=0;exitX=0.5;exitY=0;exitDx=0;exitDy=0;" parent="1" source="HV-bgtho3TOBQOwCZQjI-32" target="HV-bgtho3TOBQOwCZQjI-38" edge="1">
          <mxGeometry width="50" height="50" relative="1" as="geometry">
            <mxPoint x="-17.090000000000032" y="1611" as="sourcePoint" />
            <mxPoint x="-17.090000000000032" y="1592" as="targetPoint" />
          </mxGeometry>
        </mxCell>
        <mxCell id="HV-bgtho3TOBQOwCZQjI-56" value="" style="endArrow=classicThin;html=1;rounded=0;endFill=1;entryX=0.499;entryY=1.069;entryDx=0;entryDy=0;entryPerimeter=0;exitX=0.436;exitY=-0.016;exitDx=0;exitDy=0;exitPerimeter=0;" parent="1" edge="1">
          <mxGeometry width="50" height="50" relative="1" as="geometry">
            <mxPoint x="-12.060000000000002" y="1576" as="sourcePoint" />
            <mxPoint x="-12.03000000000003" y="1561.3200000000002" as="targetPoint" />
          </mxGeometry>
        </mxCell>
        <mxCell id="HV-bgtho3TOBQOwCZQjI-57" value="" style="endArrow=classicThin;html=1;rounded=0;endFill=1;entryX=0.497;entryY=1.046;entryDx=0;entryDy=0;entryPerimeter=0;" parent="1" target="HV-bgtho3TOBQOwCZQjI-34" edge="1">
          <mxGeometry width="50" height="50" relative="1" as="geometry">
            <mxPoint x="-12" y="1541" as="sourcePoint" />
            <mxPoint x="-17.090000000000032" y="1529" as="targetPoint" />
          </mxGeometry>
        </mxCell>
        <mxCell id="HV-bgtho3TOBQOwCZQjI-58" value="" style="endArrow=classic;html=1;rounded=0;entryX=0;entryY=0.5;entryDx=0;entryDy=0;exitX=1;exitY=0.5;exitDx=0;exitDy=0;" parent="1" source="HV-bgtho3TOBQOwCZQjI-21" target="HV-bgtho3TOBQOwCZQjI-34" edge="1">
          <mxGeometry width="50" height="50" relative="1" as="geometry">
            <mxPoint x="-87" y="1520.69" as="sourcePoint" />
            <mxPoint x="-47" y="1520.88" as="targetPoint" />
          </mxGeometry>
        </mxCell>
        <mxCell id="HV-bgtho3TOBQOwCZQjI-59" value="" style="endArrow=classicThin;html=1;rounded=0;endFill=1;exitX=0.5;exitY=0;exitDx=0;exitDy=0;entryX=0.5;entryY=1;entryDx=0;entryDy=0;" parent="1" target="HV-bgtho3TOBQOwCZQjI-36" edge="1">
          <mxGeometry width="50" height="50" relative="1" as="geometry">
            <mxPoint x="-12.140000000000043" y="1506" as="sourcePoint" />
            <mxPoint x="-12.050000000000011" y="1492" as="targetPoint" />
          </mxGeometry>
        </mxCell>
        <mxCell id="HV-bgtho3TOBQOwCZQjI-60" value="C-Cot" style="rounded=1;whiteSpace=wrap;html=1;" parent="1" vertex="1">
          <mxGeometry x="68" y="1497" width="80" height="20" as="geometry" />
        </mxCell>
        <mxCell id="HV-bgtho3TOBQOwCZQjI-61" value="Upsample" style="rounded=1;whiteSpace=wrap;html=1;" parent="1" vertex="1">
          <mxGeometry x="-52" y="1441" width="80" height="20" as="geometry" />
        </mxCell>
        <mxCell id="HV-bgtho3TOBQOwCZQjI-62" value="Concat" style="rounded=1;whiteSpace=wrap;html=1;" parent="1" vertex="1">
          <mxGeometry x="-52" y="1409" width="80" height="20" as="geometry" />
        </mxCell>
        <mxCell id="HV-bgtho3TOBQOwCZQjI-63" value="" style="endArrow=classicThin;html=1;rounded=0;endFill=1;exitX=0.5;exitY=0;exitDx=0;exitDy=0;entryX=0.5;entryY=1;entryDx=0;entryDy=0;" parent="1" source="HV-bgtho3TOBQOwCZQjI-36" target="HV-bgtho3TOBQOwCZQjI-61" edge="1">
          <mxGeometry width="50" height="50" relative="1" as="geometry">
            <mxPoint x="-12.200000000000045" y="1471" as="sourcePoint" />
            <mxPoint x="-12" y="1461" as="targetPoint" />
          </mxGeometry>
        </mxCell>
        <mxCell id="HV-bgtho3TOBQOwCZQjI-64" value="" style="endArrow=classicThin;html=1;rounded=0;endFill=1;exitX=0.5;exitY=0;exitDx=0;exitDy=0;entryX=0.5;entryY=1;entryDx=0;entryDy=0;" parent="1" edge="1">
          <mxGeometry width="50" height="50" relative="1" as="geometry">
            <mxPoint x="-12.140000000000043" y="1441" as="sourcePoint" />
            <mxPoint x="-12" y="1429" as="targetPoint" />
          </mxGeometry>
        </mxCell>
        <mxCell id="HV-bgtho3TOBQOwCZQjI-65" value="" style="endArrow=classic;html=1;rounded=0;entryX=0;entryY=0.5;entryDx=0;entryDy=0;exitX=1;exitY=0.5;exitDx=0;exitDy=0;" parent="1" edge="1">
          <mxGeometry width="50" height="50" relative="1" as="geometry">
            <mxPoint x="-72" y="1420.8600000000001" as="sourcePoint" />
            <mxPoint x="-52" y="1420.8600000000001" as="targetPoint" />
          </mxGeometry>
        </mxCell>
        <mxCell id="HV-bgtho3TOBQOwCZQjI-66" value="Ghost-C2f" style="rounded=1;whiteSpace=wrap;html=1;" parent="1" vertex="1">
          <mxGeometry x="-52" y="1376" width="80" height="20" as="geometry" />
        </mxCell>
        <mxCell id="HV-bgtho3TOBQOwCZQjI-67" value="" style="endArrow=classicThin;html=1;rounded=0;endFill=1;exitX=0.5;exitY=0;exitDx=0;exitDy=0;entryX=0.5;entryY=1;entryDx=0;entryDy=0;" parent="1" edge="1">
          <mxGeometry width="50" height="50" relative="1" as="geometry">
            <mxPoint x="-12.069999999999993" y="1409" as="sourcePoint" />
            <mxPoint x="-12.069999999999993" y="1396" as="targetPoint" />
          </mxGeometry>
        </mxCell>
        <mxCell id="HV-bgtho3TOBQOwCZQjI-68" value="C-Cot" style="rounded=1;whiteSpace=wrap;html=1;" parent="1" vertex="1">
          <mxGeometry x="68" y="1347" width="80" height="20" as="geometry" />
        </mxCell>
        <mxCell id="HV-bgtho3TOBQOwCZQjI-69" value="NSC-MFFM" style="rounded=1;whiteSpace=wrap;html=1;" parent="1" vertex="1">
          <mxGeometry x="68" y="1383" width="80" height="20" as="geometry" />
        </mxCell>
        <mxCell id="HV-bgtho3TOBQOwCZQjI-70" value="Concat" style="rounded=1;whiteSpace=wrap;html=1;" parent="1" vertex="1">
          <mxGeometry x="68" y="1421" width="80" height="20" as="geometry" />
        </mxCell>
        <mxCell id="HV-bgtho3TOBQOwCZQjI-71" value="Ghost-C2f" style="rounded=1;whiteSpace=wrap;html=1;" parent="1" vertex="1">
          <mxGeometry x="68" y="1456" width="80" height="20" as="geometry" />
        </mxCell>
        <mxCell id="HV-bgtho3TOBQOwCZQjI-72" value="C-Cot" style="rounded=1;whiteSpace=wrap;html=1;" parent="1" vertex="1">
          <mxGeometry x="68" y="1649" width="80" height="20" as="geometry" />
        </mxCell>
        <mxCell id="HV-bgtho3TOBQOwCZQjI-74" value="" style="endArrow=none;html=1;rounded=0;" parent="1" edge="1">
          <mxGeometry width="50" height="50" relative="1" as="geometry">
            <mxPoint x="-12" y="1376" as="sourcePoint" />
            <mxPoint x="-12" y="1356" as="targetPoint" />
          </mxGeometry>
        </mxCell>
        <mxCell id="HV-bgtho3TOBQOwCZQjI-75" value="" style="endArrow=classic;html=1;rounded=0;entryX=0;entryY=0.5;entryDx=0;entryDy=0;" parent="1" edge="1">
          <mxGeometry width="50" height="50" relative="1" as="geometry">
            <mxPoint x="-12" y="1356" as="sourcePoint" />
            <mxPoint x="68" y="1356.76" as="targetPoint" />
          </mxGeometry>
        </mxCell>
        <mxCell id="HV-bgtho3TOBQOwCZQjI-76" value="" style="endArrow=classicThin;html=1;rounded=0;endFill=1;exitX=0.5;exitY=1;exitDx=0;exitDy=0;entryX=0.5;entryY=0;entryDx=0;entryDy=0;" parent="1" target="HV-bgtho3TOBQOwCZQjI-72" edge="1">
          <mxGeometry width="50" height="50" relative="1" as="geometry">
            <mxPoint x="107.86000000000001" y="1631" as="sourcePoint" />
            <mxPoint x="107.86000000000001" y="1646" as="targetPoint" />
          </mxGeometry>
        </mxCell>
        <mxCell id="HV-bgtho3TOBQOwCZQjI-78" value="" style="endArrow=classicThin;html=1;rounded=0;endFill=1;entryX=0.5;entryY=0;entryDx=0;entryDy=0;exitX=0.5;exitY=1;exitDx=0;exitDy=0;" parent="1" source="HV-bgtho3TOBQOwCZQjI-70" target="HV-bgtho3TOBQOwCZQjI-71" edge="1">
          <mxGeometry width="50" height="50" relative="1" as="geometry">
            <mxPoint x="107.89999999999998" y="1445" as="sourcePoint" />
            <mxPoint x="107.82999999999998" y="1457" as="targetPoint" />
          </mxGeometry>
        </mxCell>
        <mxCell id="HV-bgtho3TOBQOwCZQjI-79" value="" style="endArrow=classicThin;html=1;rounded=0;endFill=1;exitX=0.5;exitY=1;exitDx=0;exitDy=0;entryX=0.5;entryY=0;entryDx=0;entryDy=0;" parent="1" target="HV-bgtho3TOBQOwCZQjI-70" edge="1">
          <mxGeometry width="50" height="50" relative="1" as="geometry">
            <mxPoint x="107.93" y="1403" as="sourcePoint" />
            <mxPoint x="108" y="1420" as="targetPoint" />
          </mxGeometry>
        </mxCell>
        <mxCell id="HV-bgtho3TOBQOwCZQjI-80" value="" style="endArrow=classicThin;html=1;rounded=0;endFill=1;exitX=0.5;exitY=1;exitDx=0;exitDy=0;entryX=0.5;entryY=0;entryDx=0;entryDy=0;" parent="1" target="HV-bgtho3TOBQOwCZQjI-69" edge="1">
          <mxGeometry width="50" height="50" relative="1" as="geometry">
            <mxPoint x="107.93" y="1367" as="sourcePoint" />
            <mxPoint x="107.93" y="1382" as="targetPoint" />
          </mxGeometry>
        </mxCell>
        <mxCell id="HV-bgtho3TOBQOwCZQjI-81" value="" style="endArrow=classicThin;html=1;rounded=0;endFill=1;entryX=0.5;entryY=0;entryDx=0;entryDy=0;exitX=0.5;exitY=1;exitDx=0;exitDy=0;" parent="1" target="HV-bgtho3TOBQOwCZQjI-60" edge="1">
          <mxGeometry width="50" height="50" relative="1" as="geometry">
            <mxPoint x="108.07" y="1476" as="sourcePoint" />
            <mxPoint x="107.89999999999998" y="1492" as="targetPoint" />
          </mxGeometry>
        </mxCell>
        <mxCell id="HV-bgtho3TOBQOwCZQjI-83" value="" style="endArrow=classic;html=1;rounded=0;" parent="1" edge="1">
          <mxGeometry width="50" height="50" relative="1" as="geometry">
            <mxPoint x="148" y="1356.71" as="sourcePoint" />
            <mxPoint x="238" y="1356.9299999999998" as="targetPoint" />
          </mxGeometry>
        </mxCell>
        <mxCell id="HV-bgtho3TOBQOwCZQjI-84" value="" style="endArrow=classic;html=1;rounded=0;" parent="1" edge="1">
          <mxGeometry width="50" height="50" relative="1" as="geometry">
            <mxPoint x="148" y="1506" as="sourcePoint" />
            <mxPoint x="238" y="1506.22" as="targetPoint" />
          </mxGeometry>
        </mxCell>
        <mxCell id="HV-bgtho3TOBQOwCZQjI-85" value="" style="endArrow=classic;html=1;rounded=0;" parent="1" edge="1">
          <mxGeometry width="50" height="50" relative="1" as="geometry">
            <mxPoint x="148" y="1658.71" as="sourcePoint" />
            <mxPoint x="238" y="1658.9299999999998" as="targetPoint" />
          </mxGeometry>
        </mxCell>
        <mxCell id="HV-bgtho3TOBQOwCZQjI-87" value="Detect" style="rounded=1;whiteSpace=wrap;html=1;" parent="1" vertex="1">
          <mxGeometry x="239" y="1497" width="80" height="20" as="geometry" />
        </mxCell>
        <mxCell id="HV-bgtho3TOBQOwCZQjI-88" value="Detect" style="rounded=1;whiteSpace=wrap;html=1;" parent="1" vertex="1">
          <mxGeometry x="239" y="1347" width="80" height="20" as="geometry" />
        </mxCell>
        <mxCell id="HV-bgtho3TOBQOwCZQjI-89" value="Detect" style="rounded=1;whiteSpace=wrap;html=1;" parent="1" vertex="1">
          <mxGeometry x="239" y="1649" width="80" height="20" as="geometry" />
        </mxCell>
        <mxCell id="HV-bgtho3TOBQOwCZQjI-106" value="" style="endArrow=none;html=1;rounded=0;" parent="1" edge="1">
          <mxGeometry width="50" height="50" relative="1" as="geometry">
            <mxPoint x="-72" y="1731" as="sourcePoint" />
            <mxPoint x="-12" y="1731" as="targetPoint" />
          </mxGeometry>
        </mxCell>
        <mxCell id="LthCxX86QZ7ElcFjxunt-4" value="" style="endArrow=none;dashed=1;html=1;dashPattern=1 3;strokeWidth=2;rounded=0;" edge="1" parent="1">
          <mxGeometry width="50" height="50" relative="1" as="geometry">
            <mxPoint x="135" y="495" as="sourcePoint" />
            <mxPoint x="135" y="140" as="targetPoint" />
          </mxGeometry>
        </mxCell>
        <mxCell id="LthCxX86QZ7ElcFjxunt-6" value="" style="endArrow=none;dashed=1;html=1;rounded=0;" edge="1" parent="1">
          <mxGeometry width="50" height="50" relative="1" as="geometry">
            <mxPoint x="25" y="55" as="sourcePoint" />
            <mxPoint x="120" y="55" as="targetPoint" />
          </mxGeometry>
        </mxCell>
        <mxCell id="LthCxX86QZ7ElcFjxunt-7" value="" style="endArrow=none;dashed=1;html=1;dashPattern=1 3;strokeWidth=2;rounded=0;" edge="1" parent="1">
          <mxGeometry width="50" height="50" relative="1" as="geometry">
            <mxPoint x="120" y="480" as="sourcePoint" />
            <mxPoint x="120" y="50" as="targetPoint" />
          </mxGeometry>
        </mxCell>
        <mxCell id="LthCxX86QZ7ElcFjxunt-8" value="" style="endArrow=none;dashed=1;html=1;rounded=0;" edge="1" parent="1">
          <mxGeometry width="50" height="50" relative="1" as="geometry">
            <mxPoint x="25" y="480" as="sourcePoint" />
            <mxPoint x="120" y="480" as="targetPoint" />
          </mxGeometry>
        </mxCell>
        <mxCell id="LthCxX86QZ7ElcFjxunt-9" value="Backbone" style="text;html=1;align=center;verticalAlign=middle;resizable=0;points=[];autosize=1;strokeColor=none;fillColor=none;" vertex="1" parent="1">
          <mxGeometry x="28" y="445" width="75" height="30" as="geometry" />
        </mxCell>
        <mxCell id="LthCxX86QZ7ElcFjxunt-10" value="" style="endArrow=none;dashed=1;html=1;dashPattern=1 3;strokeWidth=2;rounded=0;" edge="1" parent="1">
          <mxGeometry width="50" height="50" relative="1" as="geometry">
            <mxPoint x="25" y="480" as="sourcePoint" />
            <mxPoint x="25" y="55" as="targetPoint" />
          </mxGeometry>
        </mxCell>
        <mxCell id="LthCxX86QZ7ElcFjxunt-11" value="" style="endArrow=none;dashed=1;html=1;rounded=0;" edge="1" parent="1">
          <mxGeometry width="50" height="50" relative="1" as="geometry">
            <mxPoint x="134" y="140" as="sourcePoint" />
            <mxPoint x="319" y="140" as="targetPoint" />
          </mxGeometry>
        </mxCell>
        <mxCell id="LthCxX86QZ7ElcFjxunt-12" value="" style="endArrow=none;dashed=1;html=1;dashPattern=1 3;strokeWidth=2;rounded=0;" edge="1" parent="1">
          <mxGeometry width="50" height="50" relative="1" as="geometry">
            <mxPoint x="319" y="495" as="sourcePoint" />
            <mxPoint x="319" y="140" as="targetPoint" />
          </mxGeometry>
        </mxCell>
        <mxCell id="LthCxX86QZ7ElcFjxunt-13" value="" style="endArrow=none;dashed=1;html=1;rounded=0;" edge="1" parent="1">
          <mxGeometry width="50" height="50" relative="1" as="geometry">
            <mxPoint x="137" y="495" as="sourcePoint" />
            <mxPoint x="322" y="495" as="targetPoint" />
          </mxGeometry>
        </mxCell>
        <mxCell id="LthCxX86QZ7ElcFjxunt-14" value="Neck" style="text;html=1;align=center;verticalAlign=middle;resizable=0;points=[];autosize=1;strokeColor=none;fillColor=none;" vertex="1" parent="1">
          <mxGeometry x="151" y="458" width="50" height="30" as="geometry" />
        </mxCell>
        <mxCell id="LthCxX86QZ7ElcFjxunt-15" value="" style="endArrow=none;dashed=1;html=1;dashPattern=1 3;strokeWidth=2;rounded=0;" edge="1" parent="1">
          <mxGeometry width="50" height="50" relative="1" as="geometry">
            <mxPoint x="360" y="515" as="sourcePoint" />
            <mxPoint x="360" y="140" as="targetPoint" />
          </mxGeometry>
        </mxCell>
        <mxCell id="LthCxX86QZ7ElcFjxunt-16" value="" style="endArrow=none;dashed=1;html=1;rounded=0;" edge="1" parent="1">
          <mxGeometry width="50" height="50" relative="1" as="geometry">
            <mxPoint x="363.5" y="520" as="sourcePoint" />
            <mxPoint x="458.5" y="520" as="targetPoint" />
          </mxGeometry>
        </mxCell>
        <mxCell id="LthCxX86QZ7ElcFjxunt-17" value="" style="endArrow=none;dashed=1;html=1;dashPattern=1 3;strokeWidth=2;rounded=0;" edge="1" parent="1">
          <mxGeometry width="50" height="50" relative="1" as="geometry">
            <mxPoint x="460" y="520" as="sourcePoint" />
            <mxPoint x="460" y="140" as="targetPoint" />
          </mxGeometry>
        </mxCell>
        <mxCell id="LthCxX86QZ7ElcFjxunt-19" value="" style="endArrow=none;dashed=1;html=1;rounded=0;" edge="1" parent="1">
          <mxGeometry width="50" height="50" relative="1" as="geometry">
            <mxPoint x="360" y="140" as="sourcePoint" />
            <mxPoint x="458.5" y="140" as="targetPoint" />
          </mxGeometry>
        </mxCell>
        <mxCell id="LthCxX86QZ7ElcFjxunt-20" value="Head" style="text;html=1;align=center;verticalAlign=middle;resizable=0;points=[];autosize=1;strokeColor=none;fillColor=none;" vertex="1" parent="1">
          <mxGeometry x="361" y="488" width="50" height="30" as="geometry" />
        </mxCell>
        <mxCell id="LthCxX86QZ7ElcFjxunt-21" value="" style="endArrow=none;dashed=1;html=1;dashPattern=1 3;strokeWidth=2;rounded=0;" edge="1" parent="1">
          <mxGeometry width="50" height="50" relative="1" as="geometry">
            <mxPoint x="-20" y="1120" as="sourcePoint" />
            <mxPoint x="-20" y="675" as="targetPoint" />
          </mxGeometry>
        </mxCell>
        <mxCell id="LthCxX86QZ7ElcFjxunt-22" value="" style="endArrow=none;dashed=1;html=1;rounded=0;" edge="1" parent="1">
          <mxGeometry width="50" height="50" relative="1" as="geometry">
            <mxPoint x="-20" y="1120" as="sourcePoint" />
            <mxPoint x="100" y="1120" as="targetPoint" />
          </mxGeometry>
        </mxCell>
        <mxCell id="LthCxX86QZ7ElcFjxunt-23" value="" style="endArrow=none;dashed=1;html=1;dashPattern=1 3;strokeWidth=2;rounded=0;" edge="1" parent="1">
          <mxGeometry width="50" height="50" relative="1" as="geometry">
            <mxPoint x="103" y="1120" as="sourcePoint" />
            <mxPoint x="103" y="675" as="targetPoint" />
          </mxGeometry>
        </mxCell>
        <mxCell id="LthCxX86QZ7ElcFjxunt-24" value="" style="endArrow=none;dashed=1;html=1;rounded=0;" edge="1" parent="1">
          <mxGeometry width="50" height="50" relative="1" as="geometry">
            <mxPoint x="-20" y="680" as="sourcePoint" />
            <mxPoint x="105" y="680" as="targetPoint" />
          </mxGeometry>
        </mxCell>
        <mxCell id="LthCxX86QZ7ElcFjxunt-25" value="Backbone" style="text;html=1;align=center;verticalAlign=middle;resizable=0;points=[];autosize=1;strokeColor=none;fillColor=none;" vertex="1" parent="1">
          <mxGeometry x="-20" y="683" width="75" height="30" as="geometry" />
        </mxCell>
      </root>
    </mxGraphModel>
  </diagram>
</mxfile>
